<?xml version="1.0" encoding="utf-8"?>
<!-- Generator: Adobe Illustrator 22.1.0, SVG Export Plug-In . SVG Version: 6.00 Build 0)  -->
<svg version="1.1" id="Layer_1" xmlns="http://www.w3.org/2000/svg" xmlns:xlink="http://www.w3.org/1999/xlink" x="0px" y="0px"
	 viewBox="0 0 3137 2924" style="enable-background:new 0 0 3137 2924;" xml:space="preserve">
<style type="text/css">
	.st0{fill:#616161;}
</style>
<path class="st0" d="M1560.8,2873.5c-10.9-0.2-29.2-0.2-47.4-0.9c-16.6-0.6-33.2-1.9-49.8-3c-10.5-0.7-21.1-1.6-31.6-2.5
	c-9.2-0.9-18.4-1.9-27.7-3c-6.4-0.7-12.7-1.6-19-2.4c-21-2.5-41.8-5.9-62.6-9.5c-37.2-6.4-74.1-14.4-110.6-24
	c-109.4-28.6-213.9-69.6-313.4-123.4c-153.6-83.2-287.4-191-401.3-323.4c-102.7-119.4-183.2-252.4-241.4-398.8
	c-27.2-68.5-48.9-138.7-64.9-210.6c-6.7-30-12.6-60.1-17.1-90.5c-2.4-16.1-4.9-32.3-6.9-48.4c-1.9-15.2-3.1-30.5-4.7-45.8
	c-2.6-24.8-3.6-49.8-4.7-74.7c-0.5-11.8-0.6-23.7-0.7-35.5c-0.1-15-0.1-30.1,0.2-45.1c0.4-22.4,1.4-44.8,3.1-67.1
	c0.9-11.5,1.6-23,2.6-34.4c0.8-9.2,1.8-18.5,2.9-27.7c1.3-11.4,2.7-22.9,4.3-34.3c2-14.6,4.1-29.1,6.5-43.6
	c3.9-23,8.3-45.9,13.4-68.7c13.6-60.9,30.8-120.8,52.5-179.4c81.6-221,210.2-410.1,385.5-567.3c120.4-108,255.7-192.6,405.4-254.1
	c70.2-28.8,142.4-51.8,216.4-68.8c27.1-6.2,54.4-11.7,81.8-16.4c19.5-3.3,39.2-6.2,58.8-8.6c18.1-2.2,36.2-4.1,54.4-5.8
	c53.9-4.9,107.9-6.3,162-5c19.2,0.5,38.4,1.2,57.5,2.9c11.5,1,23,1.7,34.4,2.6c8.6,0.7,17.2,1.6,25.8,2.5c7.3,0.8,14.6,1.9,21.9,2.7
	c19.7,2.2,39.3,5.2,58.9,8.5c24.6,4.2,49,9,73.4,14.5c57.5,12.9,114,29.2,169.3,49.3c225.4,82.2,417.9,213.1,577.3,392.4
	c119.1,134,209.1,285.5,270.4,454c21.1,58.1,38.3,117.3,51.5,177.7c5.9,26.9,11,53.9,15.3,81c3.4,21.2,6.3,42.4,8.7,63.7
	c1.9,17.2,3.7,34.3,4.7,51.6c0.9,16,2.3,31.9,2.9,47.9c0.7,17.9,1,35.8,1,53.7c0,19.5-0.1,39-0.8,58.5c-0.6,17.3-1.8,34.5-3,51.7
	c-0.7,10.5-1.6,21.1-2.5,31.6c-0.9,9.2-1.8,18.5-2.9,27.7c-1.4,11.4-2.8,22.9-4.4,34.3c-2,14.2-4,28.5-6.5,42.7
	c-4.2,24.3-9,48.4-14.5,72.4c-14.5,64.4-33.4,127.4-57,189c-80.9,211.1-205.2,392.7-372.5,544.6
	c-132.5,120.3-282.7,211.8-450.1,275.1c-59.9,22.6-121.1,41-183.6,55.1c-26.2,5.9-52.5,11.1-79,15.5c-22.1,3.7-44.2,7-66.5,9.4
	c-15.3,1.7-30.5,3.4-45.8,4.9c-11.8,1.1-23.6,1.7-35.4,2.5C1626.3,2873.1,1597.2,2873.4,1560.8,2873.5z M2020.6,817.8
	c-23.2,0.6-44.9,0.6-66.6,2.2c-17.6,1.3-35.1,2.8-52.5,4.8c-22.9,2.7-45.6,6.3-68.2,10.7c-44.3,8.5-87.9,20-130.6,34.6
	c-120.4,41.2-228.5,103.8-324.1,187.9c-46.7,41.1-89.5,85.9-126.9,135.7c-29,38.5-53.3,79.7-72.6,123.9
	c-27.3,62.4-43.1,127.7-48.1,195.6c-2,27.1-1.7,54.3-0.3,81.5c0,0.6,0.2,1.3,0.2,1.9c0.1,0.8,0.5,1.3,1.2,1.1
	c0.6-0.1,1.3-0.4,1.6-0.8c2.7-4.3,5.3-8.7,8-13.1c42.4-69.4,96.7-127.9,162.9-175.2c3.6-2.6,7.7-4.8,10.8-8
	c3.4-3.4,4.4-8.4,6.3-12.8c35.2-78.5,84.9-146.4,149.4-203.4c74-65.4,159.1-109.8,255.2-132.9c27.4-6.6,55.2-11.1,83.2-13.8
	c22-2.1,44.1-2.7,66.1-2.6c30.4,0.1,60.7,2.3,90.9,5.5c16.9,1.8,33.7,4,50.4,6.8c27.8,4.5,55.3,10.2,82.6,17.2
	c103.4,26.6,199.8,69,289,127.7c1.9,1.2,3.8,2.4,5.7,3.5c0.2,0.1,0.8,0.2,0.9,0c0.3-0.5,0.8-1.1,0.7-1.5c-0.3-1.6-0.8-3.1-1.3-4.6
	c-6.3-16.4-13-32.7-20.2-48.7c-52.3-116.3-124.3-218.8-216.3-307.2c-1.8-1.8-3.7-3.5-5.6-5.2c-1.5-1.3-3.1-2.2-5.1-2.4
	c-6-0.7-12.1-1.5-18.1-2.2c-7.9-0.9-15.9-1.7-23.9-2.4c-13.4-1.1-26.8-2.3-40.2-2.9C2049.9,818.2,2034.5,818.1,2020.6,817.8z
	 M2309.3,1558.3c0.1-15-0.5-28.4-1.4-41.8c-1.4-21.4-4-42.6-7.6-63.8c-6.3-36.7-16.2-72.3-29.2-107.2c-4.8-12.9-10-25.6-15.9-38.1
	c-6-12.9-3.1-9.2-14.9-18c-3.1-2.3-6.3-4.4-9.4-6.6c-76.7-52.8-161.2-85.4-253.2-99.2c-2.5-0.4-5.1-0.4-7.6-0.5
	c-0.8,0-1.2,0.4-1.1,1.2c0,0.3,0,0.7,0.2,0.9c1.6,1.6,3.1,3.2,4.8,4.7c21.4,19.3,41.2,40.3,59.5,62.5
	c37.6,45.8,67.7,96.1,90.3,150.9c15.6,38,27.2,77.2,34.4,117.6c2.4,13.2,4.6,26.5,5.8,39.9c1.1,11.8,2.5,23.6,3.1,35.4
	c0.6,13.4,0.6,26.9,0.6,40.3c0,20.5-2.6,40.9-6.5,61c-8.7,44.1-25,85.2-48.9,123.2c-29.2,46.5-67,84.6-113.2,114.3
	c-2.2,1.4-4.4,2.7-6.4,4.2c-1,0.7-1.8,1.9-2.3,3c-0.8,1.7-1.3,3.6-1.9,5.4c-4.3,13.4-9.2,26.6-15,39.4
	c-18.2,40.4-42.7,76.4-73.8,107.9c-2,2-3.9,4.2-5.8,6.4c-0.1,0.1,0,0.6,0.1,0.9c0.1,0.3,0.3,0.6,0.5,0.7c2.9,0.7,5.7,0.1,8.6-0.3
	c6-0.9,12-2,18-3.1c34.8-6.3,68-17.8,99.5-33.8c27.5-14,52.7-31.3,76.2-51.3c60.5-51.4,109.4-111.9,145.8-182.5
	c36.2-70.2,57.5-144.8,64.6-223.4C2308.6,1591.4,2309.6,1574.1,2309.3,1558.3z M1920.8,1875.9c-0.3,0-0.7,0-0.9,0.1
	c-2.3,1.2-4.5,2.3-6.7,3.6c-29.5,17.1-61.2,27.4-95.2,29.9c-2.2,0.2-4.5,0.4-6.7,0.7c-1.6,0.2-3.1,0.9-4.2,2.1
	c-1.1,1.2-2.1,2.4-3.2,3.6c-25.5,28.9-56.3,49.9-92.5,63.1c-18.7,6.8-38.1,11.2-57.9,12.6c-29.9,2.1-59.5-0.3-88.8-6.2
	c-43.7-8.8-84.5-24.9-122.2-48.8c-49.8-31.5-89.9-72.6-120.2-123.2c-0.7-1.1-1.3-2.2-1.9-3.3c-0.5-0.8-1-1.7-1.6-2.4
	c-0.4-0.5-1-0.8-1.5-1.1c-0.4-0.3-1.7,1-1.8,1.9c-1.2,9.8-2.2,19.7-3,29.6c-1.9,21.1-0.9,42.2,1.2,63.2c1.7,17.2,4.8,34.2,9.1,50.9
	c5.3,20.5,12,40.4,20.6,59.8c1.6,3.6,3.7,6.7,6.8,9c6.9,5.2,13.6,10.6,20.6,15.6c65.1,46.4,137.6,69.4,217.4,69.8
	c19.5,0.1,38.9-1.8,58.3-4.9c27-4.3,53.1-11.4,78.5-21.5c50.4-20.1,94.3-49.9,131.7-89c10.6-11.1,20.6-22.8,29.4-35.4
	c12-17.1,21.8-35.4,28.8-55.1c2.4-6.9,4.4-14,6.6-21C1921.7,1878.2,1921.7,1876.9,1920.8,1875.9z M741.6,1423
	c-0.1,29.4,1.4,65.1,3.1,84.6c0.1,0.9,0.1,1.9,1.1,2.4c0.6,0.3,1.7-0.1,2.3-1.1c1.7-2.7,3.3-5.5,5-8.2
	c64.8-106.9,147.2-197.8,247-273.1c15.6-11.7,31.5-23,47.8-33.7c2.8-1.8,4.9-4,6-7.2c0.8-2.4,1.9-4.7,2.9-7.1
	c46.2-115.1,112-217.5,197.3-307.5c12.3-13,25.1-25.6,38.1-37.9c2.1-2,4-4.1,6-6.2c0.1-0.1,0-0.6-0.1-0.9c-0.1-0.3-0.3-0.6-0.5-0.7
	c-2.9-0.8-5.7-0.1-8.5,0.3c-17.7,2.8-35.4,5.5-53,8.9c-39.3,7.6-77.9,17.7-115.9,30.2c-99.3,32.6-190.8,80.4-274.7,142.5
	c-11.3,8.4-8.4,4.9-14.1,17.4c-22.5,48.9-41,99.3-55.3,151.2c-7.8,28.4-14.3,57.1-19.5,86c-3.5,19.5-6.3,39.1-8.6,58.8
	c-2.1,18.1-3.7,36.3-4.7,54.5C742.2,1394.1,742,1412,741.6,1423z M1964.5,1638.8c-0.1-15.1-1.4-30-4.2-44.8
	c-3.1-16.1-7.7-31.7-12.9-47.1c-1-2.9-2.7-4.9-5.3-6.4c-13.3-7.8-26.9-14.7-41.3-20.3c-25-9.8-50.8-15-77.6-16
	c-1.6-0.1-3.2,0.1-4.7,0.4c-0.3,0.1-0.9,1.2-0.7,1.5c1,1.6,2.1,3.2,3.4,4.6c39.7,43.8,61.7,106,56.7,167.1
	c-1.6,19.9-5.6,39.2-12.3,58c-8.5,24.2-20.9,46-40.3,63.3c-2.5,2.2-4.1,4.8-5.4,7.8c-8.2,20.3-20.8,37.3-37.3,51.6
	c-1.7,1.5-3.3,3-4.9,4.6c-0.3,0.3-0.3,1.1-0.2,1.7c0,0.1,0.5,0.4,0.8,0.4c1.3,0,2.6,0,3.8-0.3c25.1-5.7,48.9-14.9,71-28.3
	C1924.3,1793,1964.7,1716.5,1964.5,1638.8z"/>
</svg>
