<svg id="Layer_1" data-name="Layer 1" xmlns="http://www.w3.org/2000/svg" viewBox="0 0 1417.04 1966.43"><defs><style>.cls-1{fill:none;stroke:#000;stroke-miterlimit:10;stroke-width:2px;}</style></defs><title>Outline</title><g id="moraba_paiini" data-name="moraba paiini"><polyline class="cls-1" points="708.52 1665.72 1415.63 958.61 1415.63 708.61 708.52 1415.72"/><polyline class="cls-1" points="708.52 1665.72 1415.63 958.61 1415.63 708.61 708.52 1415.72"/><polyline class="cls-1" points="708.52 1665.72 1415.63 958.61 1415.63 708.61 708.52 1415.72"/><line class="cls-1" x1="708.52" y1="1415.91" x2="708.52" y2="1665.91"/></g><g id="moraba_paiini-2" data-name="moraba paiini"><polyline class="cls-1" points="708.63 1665.72 1.52 958.61 1.52 708.61 708.63 1415.72"/><polyline class="cls-1" points="708.63 1665.72 1.52 958.61 1.52 708.61 708.63 1415.72"/><polyline class="cls-1" points="708.63 1665.72 1.52 958.61 1.52 708.61 708.63 1415.72"/><line class="cls-1" x1="708.63" y1="1415.91" x2="708.63" y2="1665.91"/></g><polyline class="cls-1" points="708.52 1965.72 1415.63 1258.61 1415.63 1008.61 708.52 1715.72"/><line class="cls-1" x1="708.52" y1="1715.91" x2="708.52" y2="1965.91"/><polyline class="cls-1" points="708.63 1965.72 1.52 1258.61 1.52 1008.61 708.63 1715.72"/><line class="cls-1" x1="708.63" y1="1715.91" x2="708.63" y2="1965.91"/><polyline class="cls-1" points="1128.46 421.35 1415.63 708.52 708.52 1415.63 1.41 708.52 708.52 1.41 964.52 257.41"/><path d="M1689.37,655.88a498.62,498.62,0,0,1-31.63,160.37,497.85,497.85,0,0,1-818.27,176.5A247.1,247.1,0,0,1,766.88,812.4a252.65,252.65,0,0,0,69.76,133.18c94.82,94.81,220.88,147,355,147s260.15-52.22,355-147a500.83,500.83,0,0,0,142.79-289.7M1691,615l0,.58v-.07l0-.51Zm0,.58A500,500,0,0,1,838.06,944.16a248.92,248.92,0,0,1-72-151.6l0,0a249.53,249.53,0,0,0,72,201.62,500,500,0,0,0,707.11,0c104-104,152.6-242.39,145.82-378.55Z" transform="translate(-558.48 -101.09)"/><path id="toranj" class="cls-1" d="M1545.17,237.06c195.26,195.26,195.26,511.84,0,707.11s-511.85,195.26-707.11,0c-97.63-97.64-97.63-255.93,0-353.56,81.55-81.55,205.44-95,300.93-40.29h0a247.12,247.12,0,0,0,290-44l.14.26a398.57,398.57,0,0,0,117-268.56" transform="translate(-558.48 -101.09)"/></svg>