<svg id="Layer_1" data-name="Layer 1" xmlns="http://www.w3.org/2000/svg" viewBox="0 0 2534 2534"><defs><style>.cls-1,.cls-2{fill:#fff;}.cls-1{stroke:#000;stroke-miterlimit:10;stroke-width:2px;}</style></defs><title>Outline</title><g id="moraba_paiini" data-name="moraba paiini"><polyline class="cls-1" points="1267 1766.81 1974.11 1059.7 1974.11 809.7 1267 1516.81"/><polyline class="cls-1" points="1267 1766.81 1974.11 1059.7 1974.11 809.7 1267 1516.81"/><polyline class="cls-1" points="1267 1766.81 1974.11 1059.7 1974.11 809.7 1267 1516.81"/><line class="cls-1" x1="1267" y1="1517" x2="1267" y2="1767"/></g><g id="moraba_paiini-2" data-name="moraba paiini"><polyline class="cls-1" points="1267.11 1766.81 560 1059.7 560 809.7 1267.11 1516.81"/><polyline class="cls-1" points="1267.11 1766.81 560 1059.7 560 809.7 1267.11 1516.81"/><polyline class="cls-1" points="1267.11 1766.81 560 1059.7 560 809.7 1267.11 1516.81"/><line class="cls-1" x1="1267.11" y1="1517" x2="1267.11" y2="1767"/></g><polyline class="cls-1" points="1267 2066.81 1974.11 1359.7 1974.11 1109.7 1267 1816.81"/><line class="cls-1" x1="1267" y1="1817" x2="1267" y2="2067"/><polyline class="cls-1" points="1267.11 2066.81 560 1359.7 560 1109.7 1267.11 1816.81"/><line class="cls-1" x1="1267.11" y1="1817" x2="1267.11" y2="2067"/><polyline class="cls-1" points="1686.94 522.44 1974.11 809.61 1267 1516.71 559.89 809.61 1267 102.5 1523 358.5"/><path class="cls-2" d="M1191.61,1139.61A497.46,497.46,0,0,1,838.77,993.46a248.19,248.19,0,0,1-72.49-191,251.59,251.59,0,0,0,71.07,142.45c94.63,94.63,220.44,146.74,354.26,146.74s259.64-52.11,354.26-146.74A499.85,499.85,0,0,0,1690.6,635.65a498.59,498.59,0,0,1-499,504Z"/><path d="M1689.37,655.88a498.62,498.62,0,0,1-31.63,160.37,497.85,497.85,0,0,1-818.27,176.5A247.1,247.1,0,0,1,766.88,812.4a252.65,252.65,0,0,0,69.76,133.18c94.82,94.81,220.88,147,355,147s260.15-52.22,355-147a500.83,500.83,0,0,0,142.79-289.7M1691,615l0,.58v-.07l0-.51Zm0,.58A500,500,0,0,1,838.06,944.16a248.92,248.92,0,0,1-72-151.6l0,0a249.53,249.53,0,0,0,72,201.62,500,500,0,0,0,707.11,0c104-104,152.6-242.39,145.82-378.55Z"/><path id="toranj" class="cls-1" d="M1545.17,237.06c195.26,195.26,195.26,511.84,0,707.11s-511.85,195.26-707.11,0c-97.63-97.64-97.63-255.93,0-353.56,81.55-81.55,205.44-95,300.93-40.29h0a247.12,247.12,0,0,0,290-44l.14.26a398.57,398.57,0,0,0,117-268.56"/></svg>