<?xml version="1.0" encoding="utf-8"?>
<!-- Generator: Adobe Illustrator 22.1.0, SVG Export Plug-In . SVG Version: 6.00 Build 0)  -->
<svg version="1.1" id="Layer_1" xmlns="http://www.w3.org/2000/svg" xmlns:xlink="http://www.w3.org/1999/xlink" x="0px" y="0px"
	 viewBox="0 0 6481 3228" style="enable-background:new 0 0 6481 3228;" xml:space="preserve">
<style type="text/css">
	.st0{fill:#666666;}
	.st1{fill:#0E8E97;}
	.st2{fill:#645049;}
	.st3{fill:#D9D9DB;}
	.st4{fill:#FFDC1D;}
	.st5{fill:#EF3828;}
</style>
<path class="st0" d="M4680,3025.5c-10.9-0.2-29.2-0.2-47.4-0.9c-16.6-0.6-33.2-1.9-49.8-3c-10.5-0.7-21.1-1.6-31.6-2.5
	c-9.2-0.9-18.4-1.9-27.7-3c-6.4-0.7-12.7-1.6-19-2.4c-21-2.5-41.8-5.9-62.6-9.5c-37.2-6.4-74.1-14.4-110.6-24
	c-109.4-28.6-213.9-69.6-313.4-123.4c-153.6-83.2-287.4-191-401.3-323.4c-102.7-119.4-183.2-252.4-241.4-398.8
	c-27.2-68.5-48.9-138.7-64.9-210.6c-6.7-30-12.6-60.1-17.1-90.5c-2.4-16.1-4.9-32.3-6.9-48.4c-1.9-15.2-3.1-30.5-4.7-45.8
	c-2.6-24.8-3.6-49.8-4.7-74.7c-0.5-11.8-0.6-23.7-0.7-35.5c-0.1-15-0.1-30.1,0.2-45.1c0.4-22.4,1.4-44.8,3.1-67.1
	c0.9-11.5,1.6-23,2.6-34.4c0.8-9.2,1.8-18.5,2.9-27.7c1.3-11.4,2.7-22.9,4.3-34.3c2-14.6,4.1-29.1,6.5-43.6
	c3.9-23,8.3-45.9,13.4-68.7c13.6-60.9,30.8-120.8,52.5-179.4c81.6-221,210.2-410.1,385.5-567.3c120.4-108,255.7-192.6,405.4-254.1
	c70.2-28.8,142.4-51.8,216.4-68.8c27.1-6.2,54.4-11.7,81.8-16.4c19.5-3.3,39.2-6.2,58.8-8.6c18.1-2.2,36.2-4.1,54.4-5.8
	c53.9-4.9,107.9-6.3,162-5c19.2,0.5,38.4,1.2,57.5,2.9c11.5,1,23,1.7,34.4,2.6c8.6,0.7,17.2,1.6,25.8,2.5c7.3,0.8,14.6,1.9,21.9,2.7
	c19.7,2.2,39.3,5.2,58.9,8.5c24.6,4.2,49,9,73.4,14.5c57.5,12.9,114,29.2,169.3,49.3c225.4,82.2,417.9,213.1,577.3,392.4
	c119.1,134,209.1,285.5,270.4,454c21.1,58.1,38.3,117.3,51.5,177.7c5.9,26.9,11,53.9,15.3,81c3.4,21.2,6.3,42.4,8.7,63.7
	c1.9,17.2,3.7,34.3,4.7,51.6c0.9,16,2.3,31.9,2.9,47.9c0.7,17.9,1,35.8,1,53.7c0,19.5-0.1,39-0.8,58.5c-0.6,17.3-1.8,34.5-3,51.7
	c-0.7,10.5-1.6,21.1-2.5,31.6c-0.9,9.2-1.8,18.5-2.9,27.7c-1.4,11.4-2.8,22.9-4.4,34.3c-2,14.2-4,28.5-6.5,42.7
	c-4.2,24.3-9,48.4-14.5,72.4c-14.5,64.4-33.4,127.4-57,189c-80.9,211.1-205.2,392.7-372.5,544.6
	c-132.5,120.3-282.7,211.8-450.1,275.1c-59.9,22.6-121.1,41-183.6,55.1c-26.2,5.9-52.5,11.1-79,15.5c-22.1,3.7-44.2,7-66.5,9.4
	c-15.3,1.7-30.5,3.4-45.8,4.9c-11.8,1.1-23.6,1.7-35.4,2.5C4745.6,3025.1,4716.5,3025.4,4680,3025.5z M5139.8,969.8
	c-23.2,0.6-44.9,0.6-66.6,2.2c-17.6,1.3-35.1,2.8-52.5,4.8c-22.9,2.7-45.6,6.3-68.2,10.7c-44.3,8.5-87.9,20-130.6,34.6
	c-120.4,41.2-228.5,103.8-324.1,187.9c-46.7,41.1-89.5,85.9-126.9,135.7c-29,38.5-53.3,79.7-72.6,123.9
	c-27.3,62.4-43.1,127.7-48.1,195.6c-2,27.1-1.7,54.3-0.3,81.5c0,0.6,0.2,1.3,0.2,1.9c0.1,0.8,0.5,1.3,1.2,1.1
	c0.6-0.1,1.3-0.4,1.6-0.8c2.7-4.3,5.3-8.7,8-13.1c42.4-69.4,96.7-127.9,162.9-175.2c3.6-2.6,7.7-4.8,10.8-8
	c3.4-3.4,4.4-8.4,6.3-12.8c35.2-78.5,84.9-146.4,149.4-203.4c74-65.4,159.1-109.8,255.2-132.9c27.4-6.6,55.2-11.1,83.2-13.8
	c22-2.1,44.1-2.7,66.1-2.6c30.4,0.1,60.7,2.3,90.9,5.5c16.9,1.8,33.7,4,50.4,6.8c27.8,4.5,55.3,10.2,82.6,17.2
	c103.4,26.6,199.8,69,289,127.7c1.9,1.2,3.8,2.4,5.7,3.5c0.2,0.1,0.8,0.2,0.9,0c0.3-0.5,0.8-1.1,0.7-1.5c-0.3-1.6-0.8-3.1-1.3-4.6
	c-6.3-16.4-13-32.7-20.2-48.7c-52.3-116.3-124.3-218.8-216.3-307.2c-1.8-1.8-3.7-3.5-5.6-5.2c-1.5-1.3-3.1-2.2-5.1-2.4
	c-6-0.7-12.1-1.5-18.1-2.2c-7.9-0.9-15.9-1.7-23.9-2.4c-13.4-1.1-26.8-2.3-40.2-2.9C5169.1,970.2,5153.8,970.1,5139.8,969.8z
	 M5428.5,1710.3c0.1-15-0.5-28.4-1.4-41.8c-1.4-21.4-4-42.6-7.6-63.8c-6.3-36.7-16.2-72.3-29.2-107.2c-4.8-12.9-10-25.6-15.9-38.1
	c-6-12.9-3.1-9.2-14.9-18c-3.1-2.3-6.3-4.4-9.4-6.6c-76.7-52.8-161.2-85.4-253.2-99.2c-2.5-0.4-5.1-0.4-7.6-0.5
	c-0.8,0-1.2,0.4-1.1,1.2c0,0.3,0,0.7,0.2,0.9c1.6,1.6,3.1,3.2,4.8,4.7c21.4,19.3,41.2,40.3,59.5,62.5
	c37.6,45.8,67.7,96.1,90.3,150.9c15.6,38,27.2,77.2,34.4,117.6c2.4,13.2,4.6,26.5,5.8,39.9c1.1,11.8,2.5,23.6,3.1,35.4
	c0.6,13.4,0.6,26.9,0.6,40.3c0,20.5-2.6,40.9-6.5,61c-8.7,44.1-25,85.2-48.9,123.2c-29.2,46.5-67,84.6-113.2,114.3
	c-2.2,1.4-4.4,2.7-6.4,4.2c-1,0.7-1.8,1.9-2.3,3c-0.8,1.7-1.3,3.6-1.9,5.4c-4.3,13.4-9.2,26.6-15,39.4
	c-18.2,40.4-42.7,76.4-73.8,107.9c-2,2-3.9,4.2-5.8,6.4c-0.1,0.1,0,0.6,0.1,0.9c0.1,0.3,0.3,0.6,0.5,0.7c2.9,0.7,5.7,0.1,8.6-0.3
	c6-0.9,12-2,18-3.1c34.8-6.3,68-17.8,99.5-33.8c27.5-14,52.7-31.3,76.2-51.3c60.5-51.4,109.4-111.9,145.8-182.5
	c36.2-70.2,57.5-144.8,64.6-223.4C5427.8,1743.4,5428.8,1726.1,5428.5,1710.3z M5040,2027.9c-0.3,0-0.7,0-0.9,0.1
	c-2.3,1.2-4.5,2.3-6.7,3.6c-29.5,17.1-61.2,27.4-95.2,29.9c-2.2,0.2-4.5,0.4-6.7,0.7c-1.6,0.2-3.1,0.9-4.2,2.1
	c-1.1,1.2-2.1,2.4-3.2,3.6c-25.5,28.9-56.3,49.9-92.5,63.1c-18.7,6.8-38.1,11.2-57.9,12.6c-29.9,2.1-59.5-0.3-88.8-6.2
	c-43.7-8.8-84.5-24.9-122.2-48.8c-49.8-31.5-89.9-72.6-120.2-123.2c-0.7-1.1-1.3-2.2-1.9-3.3c-0.5-0.8-1-1.7-1.6-2.4
	c-0.4-0.5-1-0.8-1.5-1.1c-0.4-0.3-1.7,1-1.8,1.9c-1.2,9.8-2.2,19.7-3,29.6c-1.9,21.1-0.9,42.2,1.2,63.2c1.7,17.2,4.8,34.2,9.1,50.9
	c5.3,20.5,12,40.4,20.6,59.8c1.6,3.6,3.7,6.7,6.8,9c6.9,5.2,13.6,10.6,20.6,15.6c65.1,46.4,137.6,69.4,217.4,69.8
	c19.5,0.1,38.9-1.8,58.3-4.9c27-4.3,53.1-11.4,78.5-21.5c50.4-20.1,94.3-49.9,131.7-89c10.6-11.1,20.6-22.8,29.4-35.4
	c12-17.1,21.8-35.4,28.8-55.1c2.4-6.9,4.4-14,6.6-21C5040.9,2030.2,5040.9,2028.9,5040,2027.9z M3860.9,1575
	c-0.1,29.4,1.4,65.1,3.1,84.6c0.1,0.9,0.1,1.9,1.1,2.4c0.6,0.3,1.7-0.1,2.3-1.1c1.7-2.7,3.3-5.5,5-8.2
	c64.8-106.9,147.2-197.8,247-273.1c15.6-11.7,31.5-23,47.8-33.7c2.8-1.8,4.9-4,6-7.2c0.8-2.4,1.9-4.7,2.9-7.1
	c46.2-115.1,112-217.5,197.3-307.5c12.3-13,25.1-25.6,38.1-37.9c2.1-2,4-4.1,6-6.2c0.1-0.1,0-0.6-0.1-0.9c-0.1-0.3-0.3-0.6-0.5-0.7
	c-2.9-0.8-5.7-0.1-8.5,0.3c-17.7,2.8-35.4,5.5-53,8.9c-39.3,7.6-77.9,17.7-115.9,30.2c-99.3,32.6-190.8,80.4-274.7,142.5
	c-11.3,8.4-8.4,4.9-14.1,17.4c-22.5,48.9-41,99.3-55.3,151.2c-7.8,28.4-14.3,57.1-19.5,86c-3.5,19.5-6.3,39.1-8.6,58.8
	c-2.1,18.1-3.7,36.3-4.7,54.5C3861.4,1546.1,3861.2,1564,3860.9,1575z M5083.8,1790.8c-0.1-15.1-1.4-30-4.2-44.8
	c-3.1-16.1-7.7-31.7-12.9-47.1c-1-2.9-2.7-4.9-5.3-6.4c-13.3-7.8-26.9-14.7-41.3-20.3c-25-9.8-50.8-15-77.6-16
	c-1.6-0.1-3.2,0.1-4.7,0.4c-0.3,0.1-0.9,1.2-0.7,1.5c1,1.6,2.1,3.2,3.4,4.6c39.7,43.8,61.7,106,56.7,167.1
	c-1.6,19.9-5.6,39.2-12.3,58c-8.5,24.2-20.9,46-40.3,63.3c-2.5,2.2-4.1,4.8-5.4,7.8c-8.2,20.3-20.8,37.3-37.3,51.6
	c-1.7,1.5-3.3,3-4.9,4.6c-0.3,0.3-0.3,1.1-0.2,1.7c0,0.1,0.5,0.4,0.8,0.4c1.3,0,2.6,0,3.8-0.3c25.1-5.7,48.9-14.9,71-28.3
	C5043.5,1945,5084,1868.5,5083.8,1790.8z"/>
<g>
	<path d="M3215.7,1688.9c-0.5,1.5-1.1,3-1.3,4.6c-0.3,1.9-0.3,3.8-0.3,5.7c0,14.4-1,28.8-2.4,43.1c-1.4,15-3.1,29.9-4.9,44.8
		c-1.3,10.8-2.7,21.6-4.3,32.3c-2.1,13.9-4.1,27.8-6.5,41.7c-4.3,23.9-9.1,47.7-14.5,71.4c-16.2,70.6-37.6,139.5-64.6,206.7
		c-77.2,192.3-191,360-341.2,502.6c-140.8,133.7-302.5,234.2-484.6,301.7c-58.8,21.8-118.9,39.4-180.2,53
		c-24.7,5.5-49.4,10.4-74.4,14.6c-19.9,3.3-39.8,6.2-59.8,8.6c-18.7,2.2-37.5,4.2-56.3,5.8c-20.7,1.7-41.5,3.2-62.3,3.8
		c-3.8,0.1-7.7-0.3-11.3,1.5c-30.7,0-61.4,0-92.2,0c-1.2-0.4-2.4-0.9-3.6-1.1c-1.9-0.3-3.8-0.3-5.7-0.4c-17-0.2-33.9-1.6-50.8-2.7
		c-10.8-0.7-21.7-1.9-32.5-3c-6.7-0.6-13.4-1.4-20-2.1c-23.5-2.4-46.9-5.9-70.3-9.6c-33.8-5.4-67.3-12.1-100.6-20.1
		c-68.2-16.3-134.9-37.5-199.9-63.8c-141.4-57.2-270.4-135.2-386.6-234c-145.4-123.7-261.4-270.6-347.9-440.8
		c-44.3-87.2-79-178.2-104.3-272.7c-9.5-35.5-17.6-71.4-24.2-107.6c-4.4-24.2-8.3-48.5-11.5-72.9c-2.2-16.8-4-33.7-5.7-50.5
		c-2.2-21.3-3.4-42.7-4.7-64.1c-0.8-13.1-0.8-26.2-1.3-39.3c-0.2-5.7-1-11.5-1.6-17.2c-0.2-1.9-1-3.7-1.5-5.5c0-6.4,0-12.8,0-19.2
		c2.4-5.7,2.6-11.8,3-17.9c0.4-6.1,0.5-12.2,0.6-18.2c0.1-18.3,1.5-36.5,2.7-54.6c1.2-17.5,3.2-35,4.8-52.6
		c1.6-17.8,4-35.6,6.6-53.3c3-20.9,6.6-41.7,10.6-62.4c6.1-31.4,13.2-62.6,21.3-93.5c28.7-109.1,70-213.2,123.9-312.2
		c80.6-148.2,184.3-278.1,311-389.5c122.5-107.7,259.5-191.8,411-252.2c65.1-26,131.9-46.9,200.2-62.8c30.5-7.1,61.2-13.3,92.2-18.4
		c20.2-3.3,40.5-6.2,60.8-8.5c19.4-2.2,38.8-4.2,58.2-5.8c25.2-2,50.4-3.4,75.7-4c3.8-0.1,7.7,0.3,11.4-1.3c16.6,0,33.3,0,49.9,0
		c1.9,0.4,3.7,0.9,5.6,1.1c3.2,0.3,6.4,0.3,9.6,0.4c19.8,0.2,39.6,1.5,59.4,2.9c17.5,1.2,35.1,2.5,52.5,4.7
		c13,1.6,26.1,2.9,39.1,4.6c13.9,1.9,27.9,3.9,41.7,6.2c18.9,3.2,37.8,6.7,56.5,10.6c42.3,8.8,84.1,19.4,125.3,32.1
		c178,54.6,338.9,141.1,483,259c199.6,163.3,351.6,379.4,437.9,622.4c20.1,56.7,36.5,114.5,49.1,173.3c5.9,27.5,11.1,55.2,15.3,83
		c2.9,19.3,5.7,38.6,7.6,58c1.6,16.2,3.3,32.5,4.8,48.7c0.5,5.1,0.4,10.2,0.6,15.3c0.1,3.8,0.2,7.7,0.3,11.5
		c0.1,1.9,0.1,3.8,0.4,5.7c0.2,1.5,0.8,3,1.2,4.5C3215.7,1590.3,3215.7,1639.6,3215.7,1688.9z M1793.2,3025.8
		c36.4-0.1,65.5-0.5,94.6-2.5c11.8-0.8,23.6-1.4,35.4-2.5c15.3-1.4,30.5-3.2,45.8-4.9c22.3-2.4,44.4-5.8,66.5-9.4
		c26.5-4.4,52.8-9.6,79-15.5c62.5-14.1,123.7-32.4,183.6-55.1c167.4-63.2,317.6-154.8,450.1-275.1
		c167.4-151.9,291.6-333.5,372.5-544.6c23.6-61.6,42.5-124.6,57-189c5.4-24,10.2-48.2,14.5-72.4c2.5-14.2,4.5-28.4,6.5-42.7
		c1.6-11.4,3.1-22.8,4.4-34.3c1.1-9.2,2.1-18.4,2.9-27.7c1-10.5,1.9-21,2.5-31.6c1.1-17.2,2.4-34.5,3-51.7c0.6-19.5,0.8-39,0.8-58.5
		c0-17.9-0.3-35.8-1-53.7c-0.6-16-2-31.9-2.9-47.9c-1-17.3-2.8-34.4-4.7-51.6c-2.4-21.3-5.3-42.5-8.7-63.7
		c-4.4-27.2-9.5-54.2-15.3-81c-13.2-60.4-30.3-119.6-51.5-177.7c-61.3-168.5-151.3-320-270.4-454
		c-159.4-179.3-351.8-310.2-577.3-392.4c-55.3-20.2-111.8-36.5-169.3-49.3c-24.3-5.4-48.8-10.3-73.4-14.5
		c-19.5-3.3-39.1-6.4-58.9-8.5c-7.3-0.8-14.6-1.9-21.9-2.7c-8.6-1-17.2-1.8-25.8-2.5c-11.5-1-23-1.7-34.4-2.6
		c-19.1-1.6-38.3-2.4-57.5-2.9c-54.1-1.3-108.1,0-162,5c-18.2,1.7-36.3,3.6-54.4,5.8c-19.7,2.4-39.3,5.3-58.8,8.6
		c-27.4,4.7-54.7,10.2-81.8,16.4c-74,17-146.1,40-216.4,68.8c-149.7,61.5-285,146-405.4,254.1C685.2,719,556.6,908.1,475,1129.1
		c-21.6,58.6-38.9,118.4-52.5,179.4c-5.1,22.8-9.5,45.7-13.4,68.7c-2.4,14.5-4.5,29.1-6.5,43.6c-1.6,11.4-3,22.8-4.3,34.3
		c-1.1,9.2-2.1,18.4-2.9,27.7c-1,11.5-1.7,23-2.6,34.4c-1.7,22.3-2.7,44.7-3.1,67.1c-0.3,15-0.2,30.1-0.2,45.1
		c0.1,11.8,0.2,23.7,0.7,35.5c1.2,24.9,2.2,49.9,4.7,74.7c1.6,15.3,2.8,30.6,4.7,45.8c2,16.2,4.5,32.3,6.9,48.4
		c4.5,30.4,10.4,60.5,17.1,90.5c16,71.9,37.7,142.1,64.9,210.6c58.2,146.4,138.7,279.3,241.4,398.8
		c113.9,132.4,247.7,240.3,401.3,323.4c99.5,53.8,204,94.8,313.4,123.4c36.5,9.5,73.4,17.6,110.6,24c20.8,3.6,41.6,7,62.6,9.5
		c6.3,0.8,12.7,1.7,19,2.4c9.2,1.1,18.4,2.1,27.7,3c10.5,1,21,1.8,31.6,2.5c16.6,1.1,33.2,2.3,49.8,3
		C1764,3025.6,1782.2,3025.6,1793.2,3025.8z"/>
	<path d="M2253,970c13.9,0.3,29.3,0.4,44.6,1.1c13.4,0.6,26.8,1.8,40.2,2.9c8,0.7,15.9,1.5,23.9,2.4c6,0.7,12.1,1.5,18.1,2.2
		c2,0.2,3.7,1.1,5.1,2.4c1.9,1.7,3.8,3.4,5.6,5.2c92,88.4,164,190.8,216.3,307.2c7.2,16,13.9,32.3,20.2,48.7c0.6,1.5,1,3,1.3,4.6
		c0.1,0.5-0.4,1.1-0.7,1.5c-0.1,0.1-0.7,0.1-0.9,0c-1.9-1.1-3.8-2.3-5.7-3.5c-89.2-58.7-185.6-101.1-289-127.7
		c-27.3-7-54.8-12.7-82.6-17.2c-16.7-2.7-33.5-5-50.4-6.8c-30.2-3.2-60.5-5.4-90.9-5.5c-22.1-0.1-44.2,0.5-66.1,2.6
		c-28,2.7-55.8,7.2-83.2,13.8c-96.1,23.1-181.2,67.5-255.2,132.9c-64.5,57-114.2,124.9-149.4,203.4c-2,4.4-2.9,9.4-6.3,12.8
		c-3.1,3.1-7.1,5.4-10.8,8c-66.2,47.3-120.5,105.8-162.9,175.2c-2.7,4.4-5.3,8.8-8,13.1c-0.3,0.4-1,0.7-1.6,0.8
		c-0.8,0.1-1.2-0.4-1.2-1.1c-0.1-0.6-0.2-1.3-0.2-1.9c-1.4-27.2-1.7-54.4,0.3-81.5c4.9-67.9,20.8-133.2,48.1-195.6
		c19.3-44.1,43.6-85.4,72.6-123.9c37.5-49.8,80.2-94.6,126.9-135.7c95.5-84.1,203.6-146.7,324.1-187.9
		c42.7-14.6,86.2-26.1,130.6-34.6c22.6-4.3,45.4-8,68.2-10.7c17.5-2.1,35-3.6,52.5-4.8C2208.1,970.6,2229.8,970.6,2253,970z
		 M2612.7,1327.9c0-0.5,0.2-1.2,0-1.8c-0.7-2.1-1.6-4.2-2.4-6.2c-52-124.1-126.2-233.1-223.1-326.6c-8-7.7-8-7.7-19.3-8.9
		c-8.6-0.9-17.2-1.7-25.8-2.6c-17.2-1.8-34.4-3.1-51.7-3.5c-5.1-0.1-10.2-0.3-15.4-0.5c-27.2-1.3-54.4,0.2-81.6,1.2
		c-1,0-1.9,0.1-2.9,0.2c-17.5,1.6-35.1,2.7-52.6,4.8c-15.9,1.9-31.7,4.1-47.5,6.7c-24.3,4-48.4,9-72.3,14.9
		c-16.1,4-32.2,8.3-48.1,13.2c-0.9,0.3-1.7,0.7-2.6,1.2c-0.2,0.1-0.2,0.6-0.2,0.9c0,0.3,0.1,0.7,0.3,0.8c2.3,1,4.6,2.1,7,2.9
		c22.7,7.9,45,16.6,67,26.2c82.7,36,158.7,82.7,228.2,140.2c7.8,6.5,7.8,6.4,17.8,8.4c17.9,3.5,35.6,7.6,53.3,12.2
		c93.5,24.5,181.3,62.2,263.5,113.1c2.2,1.3,4.4,2.6,6.6,3.9c0.3,0.1,0.6,0.2,0.9,0.1C2612.3,1328.4,2612.5,1328.1,2612.7,1327.9z
		 M1950.5,1024.9c-2.9,1-5.7,1.8-8.4,2.7c-64.8,21.7-126.6,50.1-185.3,85.1c-37.4,22.3-73.1,47.1-107.1,74.4c-1.7,1.4-3.3,3-4.9,4.5
		c-0.2,0.1-0.1,0.6,0,0.9c0.1,0.2,0.3,0.5,0.5,0.6c3.9,0.7,7.6-0.9,11.3-1.4c11.7-1.5,23.4-3.2,35.2-4.6c8.9-1.1,17.8-2.3,26.7-3
		c13.1-1.1,26.1-2,39.2-2.8c19.5-1.1,39-1.6,58.5-1c23,0.7,46,2.1,68.9,5.1c20.3,2.6,40.4,6.2,60.4,10.9c4.2,1,8.1,1.1,12.2,0.1
		c22.7-5.5,45.7-9.3,68.9-12.1c16.2-1.9,32.5-2.8,48.8-3.6c30.4-1.5,60.8,0,91.1,1.9c1,0.1,1.9,0.2,2.9,0.3c10.2,1,20.4,1.8,30.6,3
		c13,1.5,26,3.2,39,5c6,0.8,12,1.8,18,2.6c0.4,0.1,0.9-0.5,1.2-0.9c0.1-0.2,0.1-0.7-0.1-0.9c-2.1-1.9-4.2-3.9-6.5-5.7
		c-86.1-68.2-181.1-119.9-284.9-155.5C1961.4,1028.4,1955.9,1026.7,1950.5,1024.9z M1437.5,1436.7c2.5-1.6,4.9-3.1,7.2-4.7
		c42.6-28.8,88.2-51.7,136.7-68.6c33-11.5,66.7-20.1,101.1-25.7c11.8-1.9,10.3-2.3,16.8-7.9c0.2-0.2,0.5-0.4,0.7-0.6
		c61.4-53.8,130.7-93.7,208.4-119.1c6.1-2,12.2-3.7,18.3-5.7c1.7-0.6,3.8-0.7,5.1-2.9c-1.9-0.6-3.6-1.4-5.4-1.8
		c-4.4-0.9-8.8-1.7-13.2-2.5c-14.8-2.7-29.6-4.8-44.6-6.4c-13-1.4-26.1-2.5-39.2-2.9c-26.5-0.8-53.1-0.8-79.6,1.1
		c-20.7,1.5-41.4,3.3-62,5.8c-18.1,2.2-36,5.2-54,8.3c-3.3,0.5-6.1,1.7-8.5,4c-0.9,0.9-1.9,1.7-2.9,2.5
		c-47.9,41.7-91.8,87.1-130.4,137.7c-19.4,25.5-36.8,52.3-52,80.5c-1.2,2.2-2.3,4.6-3.3,6.9
		C1436.6,1435.2,1437.2,1435.9,1437.5,1436.7z M1369.8,1693.4c0,6.4,0,12.8,0,19.2c0,2.9,0.1,5.8,0.3,8.6c0.1,1.3,0.7,2.2,1.4,2.2
		c1.1,0,1.6-0.8,2.1-1.6c1.6-2.4,3.2-4.8,4.7-7.2c30-45.7,65.6-86.6,106.8-122.6c16.9-14.7,34.5-28.5,53-41.2c3-2.1,5.3-4.5,6.5-8
		c0.7-1.8,1.5-3.5,2.3-5.3c24.7-56,57.4-106.9,97.8-152.9c10.3-11.8,21.1-23.1,32.4-34.1c0.9-0.8,1.5-1.9,2.2-3
		c0.1-0.1-0.2-0.7-0.4-0.7c-2.9-0.6-5.7,0.1-8.5,0.7c-10.6,2.2-21.3,4.5-31.8,7c-73.8,18-141.7,49.2-203.6,93.4
		c-9.7,6.9-7.4,4.3-12.4,15.2c-17.9,39.1-31.1,79.7-40.1,121.8c-4.3,20-7.5,40.2-9.6,60.6C1371.3,1661.5,1370,1677.4,1369.8,1693.4z
		"/>
	<path d="M2541.6,1710.6c0.3,15.8-0.7,33-2.2,50.2c-7,78.6-28.3,153.2-64.6,223.4c-36.4,70.6-85.4,131.1-145.8,182.5
		c-23.5,20-48.7,37.3-76.2,51.3c-31.6,16-64.7,27.4-99.5,33.8c-6,1.1-12,2.2-18,3.1c-2.8,0.4-5.7,1-8.6,0.3
		c-0.2-0.1-0.4-0.4-0.5-0.7c-0.1-0.3-0.3-0.7-0.1-0.9c1.9-2.1,3.8-4.3,5.8-6.4c31.1-31.6,55.6-67.6,73.8-107.9
		c5.8-12.8,10.7-26,15-39.4c0.6-1.8,1.1-3.7,1.9-5.4c0.5-1.1,1.3-2.2,2.3-3c2-1.5,4.2-2.8,6.4-4.2c46.2-29.7,84-67.8,113.2-114.3
		c23.9-38,40.2-79.2,48.9-123.2c4-20.1,6.5-40.4,6.5-61c0-13.4,0.1-26.9-0.6-40.3c-0.5-11.8-2-23.6-3.1-35.4
		c-1.2-13.4-3.4-26.6-5.8-39.9c-7.3-40.4-18.8-79.6-34.4-117.6c-22.6-54.8-52.7-105.1-90.3-150.9c-18.3-22.3-38.1-43.2-59.5-62.5
		c-1.7-1.5-3.2-3.1-4.8-4.7c-0.2-0.2-0.1-0.6-0.2-0.9c-0.1-0.8,0.3-1.2,1.1-1.2c2.5,0.1,5.1,0.1,7.6,0.5
		c91.9,13.8,176.5,46.4,253.2,99.2c3.2,2.2,6.4,4.3,9.4,6.6c11.8,8.8,8.9,5.1,14.9,18c5.8,12.5,11,25.2,15.9,38.1
		c13,34.8,22.9,70.5,29.2,107.2c3.6,21.1,6.3,42.4,7.6,63.8C2541.1,1682.2,2541.7,1695.6,2541.6,1710.6z M2534,1690.8
		c-1.5-14.8-1.7-28.9-3.2-42.9c-1.9-17.5-4.4-34.9-7.7-52.2c-8.6-45.4-22.6-89.2-41.6-131.3c-6-13.3-3-9.6-14.8-18
		c-59.7-42.7-125.3-72.8-196.4-91c-14.9-3.8-29.9-7.1-45-9.5c-0.4-0.1-0.9,0.5-1.3,0.9c-0.1,0.2-0.1,0.7,0,0.9
		c1.7,1.9,3.4,3.8,5.2,5.6c14.6,14.4,28.4,29.5,41.5,45.3c35.7,43.2,64.8,90.4,87.2,141.7c3.8,8.6,2.1,6.6,10.1,12.2
		c63.4,44.4,116.1,99.1,158.4,163.9c1.2,1.9,2.4,3.8,3.7,5.6c0.3,0.5,0.8,1,1.3,1.4c0.2,0.2,0.7,0.4,0.9,0.3
		c0.5-0.3,1.3-0.7,1.3-1.1C2533.7,1711.7,2533.8,1700.9,2534,1690.8z M2532.6,1751.3c-0.1,0-0.2,0-0.3,0c0.1-1.9,0.1-3.8,0.3-5.7
		c0.4-3.4-0.6-6.3-2.4-9.1c-4.1-6.5-8-13.1-12.3-19.5c-37.9-57.3-84.4-106.7-139.5-147.8c-2.8-2.1-5.7-4.1-8.6-6.1
		c-0.3-0.2-1.1,0.2-1.6,0.4c-0.2,0.1-0.4,0.6-0.3,0.8c1.2,3.6,2.5,7.3,3.8,10.9c11.6,32.2,20.5,65.2,26.4,98.9
		c2.5,14.2,4.5,28.4,6,42.7c1.5,14.3,2.7,28.6,3,43c0.1,5.7,1.4,10.6,4.3,15.4c1.2,1.9,2.1,3.9,3.1,6c15.3,32.4,27.7,66,37,100.6
		c7.1,26.6,12.6,53.5,15.9,80.8c0.5,3.8,1.2,7.6,1.8,11.3c0,0.2,0.4,0.4,0.6,0.4c0.3,0,0.8,0,0.9-0.2c1-1.6,2.1-3.2,3-4.9
		c21.1-43.3,36.7-88.5,46.8-135.5c3.5-16.2,6.5-32.6,8.3-49.1C2530,1773.5,2531.3,1762.4,2532.6,1751.3z M2462.9,1986.9
		c-1.4-11.7-2.6-23.5-4.3-35.2c-3.2-21.2-7.4-42.2-12.8-62.9c-8.4-32.2-19.5-63.5-33.1-93.9c-0.9-2-2.1-3.9-3.1-5.9
		c-0.1-0.2-0.5-0.4-0.7-0.4c-0.8-0.2-1.3,0.2-1.3,1c-0.6,8-1.3,15.9-1.8,23.9c-0.8,11.8-2.6,23.5-4.8,35.1
		c-7.5,39.6-21.1,77-40.7,112.1c-0.6,1.1-1.2,2.2-1.9,3.3c-1.4,2.3-1.8,4.7-1.4,7.4c0.2,1.6,0.3,3.2,0.4,4.8
		c0.6,9.2,1.6,18.5,1.8,27.7c0.4,14.7,0.1,29.4-1.3,44.1c-1.5,15.9-3.9,31.7-7.4,47.3c-3.6,16.3-8.3,32.2-14,47.8
		c-0.8,2.1-1.3,4.2-1.9,6.4c-0.1,0.2,0.2,0.6,0.4,0.8c0.1,0.1,0.5,0.2,0.7,0.1c2.5-0.9,4.1-3,6-4.7c43.5-39.7,80.3-85,110.2-135.7
		c3.2-5.5,6.3-11.1,9.5-16.7C2462.5,1991.3,2463,1989.2,2462.9,1986.9z M2352,2011.9c-0.2-5-0.3-13.6-0.7-22.2
		c-0.1-2.5-0.8-5-1.3-7.5c-0.1-0.3-0.4-0.8-0.5-0.7c-0.6,0.1-1.4,0.2-1.7,0.6c-1.6,2-3,4.1-4.5,6.2c-28.7,42-64.3,76.8-107,104.5
		c-8.1,5.2-6.5,2.9-9.9,13.1c-11.3,34.2-27.1,66.2-47.5,95.9c-8.9,12.9-18.6,25.2-29,36.9c-1.5,1.7-2.7,3.5-4,5.3
		c-0.2,0.2-0.1,0.7,0,0.9c0.1,0.2,0.5,0.4,0.8,0.4c0.6,0.1,1.3,0.2,1.9,0.1c16.6-3.2,33.1-7.2,49.2-12.4c43.1-14,81.9-35.7,117.1-64
		c3.1-2.5,5.6-5.2,6.9-9c0.4-1.2,1-2.4,1.5-3.5C2342.3,2111.4,2352,2064.5,2352,2011.9z"/>
	<path d="M2153.2,2028.1c0.9,1.1,0.9,2.4,0.5,3.6c-2.1,7-4.1,14.1-6.6,21c-7,19.7-16.7,38-28.8,55.1c-8.8,12.6-18.8,24.3-29.4,35.4
		c-37.5,39.2-81.3,69-131.7,89c-25.3,10.1-51.5,17.2-78.5,21.5c-19.3,3.1-38.7,4.9-58.3,4.9c-79.8-0.3-152.4-23.4-217.4-69.8
		c-7-5-13.7-10.5-20.6-15.6c-3.2-2.4-5.2-5.4-6.8-9c-8.6-19.3-15.3-39.3-20.6-59.8c-4.3-16.8-7.4-33.8-9.1-50.9
		c-2.1-21-3.1-42.1-1.2-63.2c0.9-9.9,1.8-19.7,3-29.6c0.1-0.9,1.4-2.2,1.8-1.9c0.5,0.3,1.1,0.6,1.5,1.1c0.6,0.7,1.1,1.6,1.6,2.4
		c0.7,1.1,1.3,2.2,1.9,3.3c30.3,50.6,70.3,91.6,120.2,123.2c37.7,23.9,78.6,40,122.2,48.8c29.3,5.9,58.9,8.3,88.8,6.2
		c19.9-1.4,39.2-5.7,57.9-12.6c36.2-13.2,67-34.3,92.5-63.1c1.1-1.2,2.1-2.4,3.2-3.6c1.1-1.2,2.6-1.9,4.2-2.1
		c2.2-0.3,4.5-0.5,6.7-0.7c34.1-2.6,65.7-12.8,95.2-29.9c2.2-1.3,4.5-2.4,6.7-3.6C2152.5,2028.1,2152.8,2028.1,2153.2,2028.1z
		 M1551.1,2015.8c-0.5,12.2,0.8,26.2,2.4,40.2c1.8,16.5,4.9,32.8,9.1,48.9c4.8,18.3,10.9,36,18.3,53.4c2.1,4.9,4.9,8.8,9.3,11.9
		c2.6,1.8,5.1,3.9,7.6,5.8c46.3,35.3,98,58.4,155.2,69.3c0.9,0.2,1.9,0.3,2.9,0.2c0.6,0,1.4-0.2,1.6-0.6c0.2-0.4,0.1-1.3-0.2-1.8
		c-2-2.5-4.1-4.9-6.2-7.3c-29.3-33.6-52-71.1-67.9-112.7c-2.8-7.5-5.3-15.1-7.9-22.6c-0.8-2.2-2-3.9-4-5.1c-1.9-1.1-3.8-2.4-5.7-3.6
		c-26.9-17.6-51.2-38.2-72.8-62c-12.1-13.3-23.1-27.3-33.2-42.2c-0.9-1.3-1.8-2.7-2.7-4c-0.9-1.2-1.5-3.3-3.4-2.8
		c-1.2,0.3-1,2.1-1.2,3.3C1551.3,1994,1551.1,2004,1551.1,2015.8z M1816.6,2251.4c28.3,0.1,53.9-2.8,79.3-8.1
		c11.6-2.4,23-5.4,34.2-9.1c2.4-0.8,4.8-1.6,7.2-2.5c0.5-0.2,1-0.9,1.1-1.4c0.1-0.5-0.2-1.3-0.6-1.5c-2.5-1.3-5.1-2.6-7.8-3.7
		c-33.7-15.2-64.5-35-92.2-59.5c-5.3-4.7-10.3-9.5-15.4-14.4c-1.9-1.8-4.1-2.9-6.8-3.2c-19.4-2.6-38.3-6.9-57-12.7
		c-22.7-7-44.4-16.1-65.3-27.2c-2.2-1.2-4.6-2.2-6.9-3.1c-0.2-0.1-1.1,0.8-1,1.1c0.2,1.6,0.5,3.1,1.1,4.6
		c10.2,29.1,23.8,56.4,40.9,82.1c12.2,18.4,26.1,35.5,41.3,51.5c2.8,2.9,5.9,4.7,10,4.9C1792.1,2250.1,1805.4,2251.8,1816.6,2251.4z
		 M1952.1,2226.3c2.6-0.9,4.4-1.5,6.2-2.3c35.2-14.5,67.3-33.9,96.3-58.6c4.4-3.7,8.6-7.6,12.9-11.5c0.7-0.6,1.4-1.3,1-2.4
		c-0.4-1.1-1.4-1.1-2.3-1c-9.2,1.1-18.5,1.1-27.8,1.2c-14.4,0.1-28.7-1.1-43-3.6c-13.6-2.4-26.8-6-39.7-10.7c-2.9-1.1-5.4-1-8.3,0.1
		c-28.9,10.6-58.7,15.2-89.4,14.1c-7.3-0.2-14.7-0.7-22-1.1c-0.8,0-1.2,0.4-1.2,1.2c0,0.3,0,0.7,0.2,0.9c1.5,1.6,3,3.3,4.7,4.8
		c31.4,28.4,66.8,50.4,105.9,66.5C1947.7,2224.7,1949.8,2225.4,1952.1,2226.3z M2080.1,2141.5c1.1-1,2.3-2,3.4-3.1
		c10.9-11.3,20.9-23.3,29.9-36.1c11-15.8,19.8-32.8,26.4-50.9c0.8-2.1,1.4-4.2,1.9-6.4c0.1-0.4-0.5-1-1-1.8
		c-2.6,1.2-5.2,2.4-7.7,3.6c-26.5,12.8-54.3,20.6-83.6,22.6c-0.6,0-1.3,0.1-1.9,0.1c-2.1,0-3.6,1.1-5,2.5c-1.1,1.2-2.1,2.4-3.2,3.5
		c-4.7,4.8-9.3,9.7-14.2,14.3c-16.2,15.2-34.3,27.7-54.1,37.6c-2.2,1.1-4.8,1.8-6.5,4c0.5,1.8,2.1,2.2,3.5,2.6
		c19,5.9,38.4,9.7,58.3,10.2C2044.3,2144.6,2062.2,2144.4,2080.1,2141.5z"/>
	<path d="M974,1575.2c0.4-11,0.6-28.9,1.6-46.8c1-18.2,2.6-36.4,4.7-54.5c2.3-19.7,5.1-39.3,8.6-58.8c5.1-29,11.7-57.7,19.5-86
		c14.3-51.9,32.8-102.3,55.3-151.2c5.8-12.5,2.8-9.1,14.1-17.4c84-62.1,175.4-109.9,274.7-142.5c38-12.5,76.6-22.6,115.9-30.2
		c17.6-3.4,35.3-6.1,53-8.9c2.8-0.4,5.7-1.1,8.5-0.3c0.2,0.1,0.4,0.4,0.5,0.7c0.1,0.3,0.2,0.8,0.1,0.9c-2,2.1-3.9,4.2-6,6.2
		c-13,12.3-25.8,24.9-38.1,37.9c-85.3,90-151.1,192.4-197.3,307.5c-1,2.4-2.1,4.7-2.9,7.1c-1,3.3-3.2,5.4-6,7.2
		c-16.3,10.7-32.3,22-47.8,33.7c-99.8,75.2-182.2,166.2-247,273.1c-1.7,2.7-3.3,5.5-5,8.2c-0.6,1-1.7,1.4-2.3,1.1
		c-1.1-0.5-1.1-1.5-1.1-2.4C975.4,1640.3,974,1604.7,974,1575.2z M982.3,1568.2c0,9.6-0.1,19.2,0,28.8c0.1,9.9,0.4,19.8,0.7,29.7
		c0.1,2.9,0.4,5.7,0.8,8.6c0,0.4,0.9,0.7,1.4,0.9c0.2,0.1,0.7-0.1,0.9-0.3c2-2.9,4-5.7,5.9-8.7c72.8-113.1,165-207.4,276.4-282.9
		c11.6-7.9,8.6-4,14-17.2c42.5-105,101.3-200,176.6-284.8c14-15.8,28.6-31.1,43.6-45.9c1.6-1.6,3-3.3,4.4-5c0.1-0.2,0.1-0.7-0.1-0.9
		c-0.1-0.2-0.4-0.5-0.7-0.5c-4.5-0.6-8.8,0.9-13.2,1.6c-28.8,4.6-57.2,10.8-85.3,18.3c-81.7,21.6-159.3,53.4-232.6,95.6
		c-32.2,18.5-63.2,38.8-93,61c-8.8,6.5-6.9,4-11.7,14.6c-5,11.1-10,22.2-14.6,33.4c-31,74.4-52.4,151.5-63.8,231.4
		c-2.8,19.6-5.1,39.3-6.7,59.1C983.4,1526,982.2,1547,982.3,1568.2z"/>
	<path d="M2196.9,1791.1c0.2,77.7-40.3,154.2-111.4,197.6c-22,13.4-45.8,22.6-71,28.3c-1.2,0.3-2.5,0.2-3.8,0.3
		c-0.3,0-0.8-0.2-0.8-0.4c0-0.6-0.1-1.4,0.2-1.7c1.6-1.6,3.2-3.1,4.9-4.6c16.5-14.3,29.1-31.3,37.3-51.6c1.2-3,2.9-5.6,5.4-7.8
		c19.4-17.3,31.7-39.1,40.3-63.3c6.6-18.8,10.6-38.1,12.3-58c5-61.1-17-123.2-56.7-167.1c-1.3-1.4-2.4-3-3.4-4.6
		c-0.2-0.3,0.4-1.4,0.7-1.5c1.6-0.3,3.2-0.4,4.7-0.4c26.8,0.9,52.6,6.2,77.6,16c14.3,5.6,28,12.6,41.3,20.3c2.6,1.5,4.4,3.5,5.3,6.4
		c5.2,15.5,9.8,31.1,12.9,47.1C2195.5,1761.1,2196.8,1776,2196.9,1791.1z M2067.1,1664.4c-0.1,0.8-0.4,1.6-0.2,2
		c1,1.6,2,3.2,3.2,4.7c16.9,22,29.4,46.4,37.7,72.8c0.5,1.5,0.9,3.1,1.5,4.6c0.5,1.6,1.5,2.8,3,3.5c0.9,0.4,1.7,0.9,2.5,1.3
		c26.6,13.4,49.5,31.5,69.1,53.9c1,1.2,1.9,3.2,3.6,2.7c2.4-0.6,1.6-3.1,1.8-4.8c0.4-3.8,0.6-7.6,0.7-11.5c0.3-10.6-0.6-21.1-2-31.6
		c-2.6-20-7.7-39.5-14.4-58.5c-0.9-2.6-2.3-4.4-4.7-5.8c-26.1-15.3-53.9-26.4-83.9-31.4C2079.1,1665.5,2073.1,1664.5,2067.1,1664.4z
		 M2152.4,1911.6c1.8,0,2.6-1,3.3-2c15.3-24.4,25.4-50.8,30.7-79c0.3-1.9,0.6-3.8,0.6-5.7c0-1.2-0.6-2.4-1.1-3.6
		c-0.4-0.9-1.1-1.6-1.7-2.3c-18.3-22.6-40.1-41.2-65.6-55.2c-1.1-0.6-2.3-1-3.5-1.4c-0.8-0.3-1.2,0.1-1.4,0.9
		c-0.6,2.6,0.2,5.1,0.7,7.5c1.8,9.8,3.1,19.6,3.5,29.5c0.4,9.6,0.3,19.2-0.2,28.8c-0.1,2.6-0.4,5.1-0.3,7.7c0,1.2,0.4,2.5,1,3.6
		c0.7,1.4,1.7,2.7,2.6,4c13,19.2,23,39.8,29.7,62C2151,1908.2,2151.8,1909.9,2152.4,1911.6z M2094,1970.8c0.2,0.6,0.3,1.4,0.7,1.6
		c0.4,0.3,1.2,0.1,1.8,0c0.3,0,0.6-0.3,0.8-0.5c18.3-13.2,34-28.9,47.5-46.9c0.2-0.3,0.4-0.5,0.6-0.8c1.2-1.7,1.4-3.5,1-5.5
		c-0.2-0.9-0.4-1.9-0.6-2.8c-5.9-21.7-14.8-42.1-26.7-61.2c-0.3-0.5-0.7-1-1.1-1.5c-0.2-0.3-0.4-0.5-0.6-0.7
		c-0.2-0.2-0.7-0.4-0.9-0.4c-0.5,0.2-1.3,0.5-1.4,1c-1.3,5.3-2.4,10.6-3.7,15.8c-2.9,11.1-6.4,22.1-10.9,32.6c-1.3,3-2.1,6-1.7,9.3
		c0.1,0.9,0.1,1.9,0.2,2.9c0.9,12.8-0.1,25.5-1.9,38.2C2096.1,1958.2,2095,1964.5,2094,1970.8z M2091.8,1923.9
		c-0.7-0.1-1.3-0.3-1.8-0.1c-0.5,0.2-1,0.8-1.3,1.3c-7.1,11.5-15.5,21.9-25.6,31c-2.3,2-3.5,4.5-4.7,7.2
		c-5.4,12.8-12.5,24.5-21.3,35.2c-0.6,0.7-1.2,1.5-1.7,2.3c-0.3,0.5-0.4,1.2-0.2,1.7c0.2,0.7,0.9,0.7,1.7,0.4
		c13.4-4.4,26.2-10.2,38.6-17c2-1.1,3.9-2.3,5.8-3.4c1.4-0.9,2.4-2.2,2.9-3.7c0.3-0.9,0.5-1.8,0.7-2.8c4.3-16.2,6.3-32.6,7.1-49.3
		C2092,1925.8,2091.8,1924.9,2091.8,1923.9z"/>
	<path class="st1" d="M2612.7,1327.9c-0.3,0.3-0.5,0.6-0.7,0.6c-0.3,0.1-0.7,0.1-0.9-0.1c-2.2-1.3-4.4-2.6-6.6-3.9
		c-82.2-50.9-170-88.6-263.5-113.1c-17.6-4.6-35.4-8.8-53.3-12.2c-10-1.9-10-1.9-17.8-8.4c-69.5-57.4-145.5-104.2-228.2-140.2
		c-22-9.6-44.3-18.3-67-26.2c-2.4-0.8-4.7-1.9-7-2.9c-0.2-0.1-0.2-0.5-0.3-0.8c0-0.3,0-0.8,0.2-0.9c0.8-0.5,1.7-0.9,2.6-1.2
		c15.9-4.9,31.9-9.2,48.1-13.2c23.9-5.9,48-10.9,72.3-14.9c15.8-2.6,31.6-4.8,47.5-6.7c17.5-2.1,35-3.3,52.6-4.8
		c1-0.1,1.9-0.2,2.9-0.2c27.2-0.9,54.3-2.4,81.6-1.2c5.1,0.2,10.2,0.4,15.4,0.5c17.3,0.4,34.5,1.7,51.7,3.5
		c8.6,0.9,17.2,1.7,25.8,2.6c11.3,1.2,11.3,1.2,19.3,8.9c96.9,93.5,171.1,202.5,223.1,326.6c0.9,2.1,1.7,4.1,2.4,6.2
		C2612.9,1326.7,2612.7,1327.3,2612.7,1327.9z"/>
	<path class="st1" d="M1950.5,1024.9c5.4,1.8,10.9,3.5,16.3,5.4c103.8,35.6,198.8,87.4,284.9,155.5c2.2,1.8,4.3,3.7,6.5,5.7
		c0.2,0.2,0.2,0.7,0.1,0.9c-0.3,0.4-0.9,1-1.2,0.9c-6-0.8-12-1.8-18-2.6c-13-1.7-26-3.5-39-5c-10.2-1.2-20.4-2-30.6-3
		c-1-0.1-1.9-0.2-2.9-0.3c-30.3-1.9-60.7-3.4-91.1-1.9c-16.3,0.8-32.6,1.7-48.8,3.6c-23.2,2.8-46.2,6.6-68.9,12.1
		c-4.2,1-8.1,0.9-12.2-0.1c-19.9-4.6-40.1-8.3-60.4-10.9c-22.9-2.9-45.8-4.4-68.9-5.1c-19.5-0.6-39-0.1-58.5,1
		c-13.1,0.7-26.2,1.7-39.2,2.8c-8.9,0.7-17.8,1.9-26.7,3c-11.7,1.5-23.4,3.2-35.2,4.6c-3.8,0.5-7.4,2.1-11.3,1.4
		c-0.2,0-0.5-0.3-0.5-0.6c-0.1-0.3-0.2-0.8,0-0.9c1.6-1.5,3.2-3.1,4.9-4.5c34-27.3,69.7-52.1,107.1-74.4
		c58.7-35,120.4-63.4,185.3-85.1C1944.8,1026.7,1947.5,1025.9,1950.5,1024.9z"/>
	<path class="st1" d="M1437.5,1436.7c-0.3-0.8-0.9-1.5-0.7-1.9c1-2.3,2.1-4.7,3.3-6.9c15.2-28.2,32.5-55,52-80.5
		c38.5-50.6,82.5-96,130.4-137.7c1-0.8,2-1.6,2.9-2.5c2.4-2.3,5.3-3.5,8.5-4c18-3,35.9-6.1,54-8.3c20.6-2.5,41.3-4.4,62-5.8
		c26.5-1.9,53-1.9,79.6-1.1c13.1,0.4,26.2,1.5,39.2,2.9c15,1.6,29.8,3.7,44.6,6.4c4.4,0.8,8.8,1.6,13.2,2.5c1.8,0.4,3.6,1.2,5.4,1.8
		c-1.3,2.2-3.3,2.3-5.1,2.9c-6.1,2-12.2,3.7-18.3,5.7c-77.6,25.4-147,65.2-208.4,119.1c-0.2,0.2-0.5,0.4-0.7,0.6
		c-6.6,5.6-5,6-16.8,7.9c-34.5,5.5-68.2,14.1-101.1,25.7c-48.5,17-94.1,39.9-136.7,68.6C1442.4,1433.6,1439.9,1435.2,1437.5,1436.7z
		"/>
	<path class="st1" d="M1369.8,1693.4c0.2-16,1.5-32,3.1-47.9c2.1-20.4,5.3-40.6,9.6-60.6c9-42,22.2-82.7,40.1-121.8
		c5-10.9,2.7-8.3,12.4-15.2c61.9-44.2,129.7-75.3,203.6-93.4c10.5-2.6,21.2-4.8,31.8-7c2.8-0.6,5.6-1.3,8.5-0.7
		c0.2,0,0.5,0.6,0.4,0.7c-0.7,1-1.3,2.1-2.2,3c-11.3,10.9-22,22.3-32.4,34.1c-40.4,46-73.1,96.9-97.8,152.9
		c-0.8,1.8-1.6,3.5-2.3,5.3c-1.3,3.4-3.5,5.9-6.5,8c-18.5,12.7-36.1,26.4-53,41.2c-41.2,36-76.7,76.9-106.8,122.6
		c-1.6,2.4-3.1,4.8-4.7,7.2c-0.5,0.7-1,1.5-2.1,1.6c-0.7,0-1.3-0.9-1.4-2.2c-0.1-2.9-0.2-5.7-0.3-8.6
		C1369.8,1706.2,1369.8,1699.8,1369.8,1693.4z"/>
	<path class="st2" d="M2534,1690.8c-0.1,10.1-0.3,21-0.5,31.8c0,0.4-0.8,0.8-1.3,1.1c-0.2,0.1-0.6-0.1-0.9-0.3
		c-0.5-0.4-0.9-0.9-1.3-1.4c-1.3-1.9-2.5-3.7-3.7-5.6c-42.3-64.8-95.1-119.5-158.4-163.9c-8-5.6-6.3-3.6-10.1-12.2
		c-22.4-51.3-51.5-98.5-87.2-141.7c-13-15.8-26.9-30.9-41.5-45.3c-1.8-1.8-3.5-3.7-5.2-5.6c-0.2-0.2-0.2-0.7,0-0.9
		c0.4-0.4,0.9-0.9,1.3-0.9c15.2,2.4,30.2,5.6,45,9.5c71.1,18.2,136.6,48.4,196.4,91c11.8,8.4,8.8,4.7,14.8,18
		c19.1,42.1,33,85.9,41.6,131.3c3.3,17.3,5.8,34.7,7.7,52.2C2532.3,1661.9,2532.4,1676,2534,1690.8z"/>
	<path class="st2" d="M2532.6,1751.3c-1.3,11.1-2.5,22.2-3.8,33.3c-1.8,16.5-4.8,32.9-8.3,49.1c-10.1,47.1-25.7,92.3-46.8,135.5
		c-0.8,1.7-1.9,3.3-3,4.9c-0.1,0.2-0.6,0.2-0.9,0.2c-0.2,0-0.6-0.3-0.6-0.4c-0.6-3.8-1.4-7.5-1.8-11.3c-3.3-27.3-8.7-54.2-15.9-80.8
		c-9.3-34.6-21.8-68.1-37-100.6c-1-2-1.9-4.1-3.1-6c-2.9-4.7-4.2-9.7-4.3-15.4c-0.3-14.4-1.5-28.7-3-43c-1.5-14.3-3.5-28.5-6-42.7
		c-5.9-33.8-14.7-66.7-26.4-98.9c-1.3-3.6-2.5-7.2-3.8-10.9c-0.1-0.2,0.1-0.7,0.3-0.8c0.5-0.2,1.3-0.6,1.6-0.4c2.9,2,5.8,4,8.6,6.1
		c55.1,41.2,101.5,90.5,139.5,147.8c4.2,6.4,8.1,13,12.3,19.5c1.8,2.8,2.8,5.7,2.4,9.1c-0.2,1.9-0.2,3.8-0.3,5.7
		C2532.4,1751.2,2532.5,1751.3,2532.6,1751.3z"/>
	<path class="st2" d="M2462.9,1986.9c0.1,2.3-0.4,4.4-1.6,6.4c-3.2,5.5-6.2,11.2-9.5,16.7c-29.9,50.8-66.7,96-110.2,135.7
		c-1.9,1.7-3.5,3.8-6,4.7c-0.2,0.1-0.6,0-0.7-0.1c-0.2-0.2-0.5-0.6-0.4-0.8c0.6-2.1,1.1-4.3,1.9-6.4c5.7-15.6,10.5-31.5,14-47.8
		c3.4-15.6,5.8-31.4,7.4-47.3c1.4-14.7,1.7-29.4,1.3-44.1c-0.3-9.3-1.2-18.5-1.8-27.7c-0.1-1.6-0.2-3.2-0.4-4.8
		c-0.4-2.6,0-5.1,1.4-7.4c0.7-1.1,1.3-2.2,1.9-3.3c19.7-35.2,33.2-72.6,40.7-112.1c2.2-11.6,4-23.3,4.8-35.1
		c0.5-8,1.2-15.9,1.8-23.9c0.1-0.8,0.5-1.1,1.3-1c0.3,0.1,0.6,0.2,0.7,0.4c1.1,1.9,2.2,3.9,3.1,5.9c13.6,30.4,24.7,61.7,33.1,93.9
		c5.4,20.7,9.7,41.7,12.8,62.9C2460.4,1963.3,2461.5,1975.1,2462.9,1986.9z"/>
	<path class="st2" d="M2352,2011.9c0,52.6-9.7,99.5-28.8,144.5c-0.5,1.2-1.1,2.3-1.5,3.5c-1.2,3.8-3.8,6.5-6.9,9
		c-35.2,28.3-74.1,50-117.1,64c-16.1,5.2-32.5,9.3-49.2,12.4c-0.6,0.1-1.3,0-1.9-0.1c-0.3,0-0.6-0.2-0.8-0.4c-0.1-0.2-0.2-0.7,0-0.9
		c1.3-1.8,2.6-3.6,4-5.3c10.4-11.7,20.1-24,29-36.9c20.4-29.7,36.2-61.7,47.5-95.9c3.4-10.2,1.8-7.9,9.9-13.1
		c42.7-27.6,78.3-62.5,107-104.5c1.4-2.1,2.9-4.2,4.5-6.2c0.3-0.4,1.1-0.5,1.7-0.6c0.1,0,0.5,0.5,0.5,0.7c0.5,2.5,1.1,5,1.3,7.5
		C2351.7,1998.3,2351.9,2006.9,2352,2011.9z"/>
	<path class="st3" d="M1551.1,2015.8c0-11.8,0.1-21.7,1.4-31.6c0.2-1.2,0-3,1.2-3.3c1.9-0.5,2.5,1.6,3.4,2.8c0.9,1.3,1.8,2.6,2.7,4
		c10,14.9,21.1,28.9,33.2,42.2c21.6,23.8,45.9,44.4,72.8,62c1.9,1.2,3.7,2.5,5.7,3.6c2.1,1.2,3.3,2.9,4,5.1c2.6,7.5,5,15.2,7.9,22.6
		c15.9,41.6,38.6,79.2,67.9,112.7c2.1,2.4,4.2,4.8,6.2,7.3c0.3,0.4,0.4,1.3,0.2,1.8c-0.2,0.4-1.1,0.5-1.6,0.6c-1,0-1.9-0.1-2.9-0.2
		c-57.2-10.9-108.9-33.9-155.2-69.3c-2.5-1.9-5-4-7.6-5.8c-4.3-3-7.2-7-9.3-11.9c-7.3-17.4-13.5-35.2-18.3-53.4
		c-4.2-16.1-7.3-32.4-9.1-48.9C1552,2042,1550.7,2028,1551.1,2015.8z"/>
	<path class="st3" d="M1816.6,2251.4c-11.2,0.4-24.5-1.3-37.9-2.2c-4.1-0.3-7.2-2-10-4.9c-15.3-16-29.1-33.1-41.3-51.5
		c-17.1-25.7-30.7-53-40.9-82.1c-0.5-1.5-0.8-3.1-1.1-4.6c0-0.3,0.9-1.2,1-1.1c2.3,1,4.7,2,6.9,3.1c20.9,11.2,42.7,20.3,65.3,27.2
		c18.6,5.7,37.6,10.1,57,12.7c2.7,0.4,4.8,1.4,6.8,3.2c5.1,4.8,10.2,9.7,15.4,14.4c27.7,24.5,58.5,44.3,92.2,59.5
		c2.6,1.2,5.2,2.4,7.8,3.7c0.4,0.2,0.7,1,0.6,1.5c-0.1,0.5-0.6,1.2-1.1,1.4c-2.4,0.9-4.8,1.7-7.2,2.5c-11.2,3.7-22.7,6.7-34.2,9.1
		C1870.5,2248.5,1844.9,2251.4,1816.6,2251.4z"/>
	<path class="st3" d="M1952.1,2226.3c-2.4-0.9-4.5-1.6-6.5-2.5c-39.1-16-74.5-38.1-105.9-66.5c-1.6-1.5-3.1-3.2-4.7-4.8
		c-0.2-0.2-0.2-0.6-0.2-0.9c0-0.8,0.4-1.2,1.2-1.2c7.3,0.4,14.7,0.9,22,1.1c30.7,1,60.6-3.5,89.4-14.1c2.9-1.1,5.4-1.2,8.3-0.1
		c12.9,4.7,26.1,8.4,39.7,10.7c14.2,2.5,28.5,3.7,43,3.6c9.3-0.1,18.6-0.2,27.8-1.2c0.9-0.1,1.9-0.1,2.3,1c0.4,1.1-0.4,1.8-1,2.4
		c-4.3,3.9-8.5,7.8-12.9,11.5c-29,24.6-61.2,44-96.3,58.6C1956.5,2224.8,1954.7,2225.4,1952.1,2226.3z"/>
	<path class="st3" d="M2080.1,2141.5c-18,3-35.8,3.2-53.7,2.7c-19.9-0.5-39.3-4.3-58.3-10.2c-1.4-0.4-3-0.9-3.5-2.6
		c1.6-2.2,4.2-2.8,6.5-4c19.8-10,37.9-22.4,54.1-37.6c4.9-4.6,9.5-9.5,14.2-14.3c1.1-1.1,2.1-2.4,3.2-3.5c1.3-1.4,2.9-2.5,5-2.5
		c0.6,0,1.3-0.1,1.9-0.1c29.4-2,57.2-9.8,83.6-22.6c2.6-1.2,5.2-2.4,7.7-3.6c0.4,0.8,1.1,1.4,1,1.8c-0.5,2.2-1.1,4.3-1.9,6.4
		c-6.7,18.1-15.4,35.1-26.4,50.9c-9,12.9-19,24.9-29.9,36.1C2082.4,2139.5,2081.2,2140.5,2080.1,2141.5z"/>
	<path class="st4" d="M982.3,1568.2c-0.1-21.1,1.1-42.2,2.8-63.3c1.6-19.8,3.9-39.4,6.7-59.1c11.4-79.9,32.8-156.9,63.8-231.4
		c4.7-11.2,9.6-22.3,14.6-33.4c4.8-10.6,2.9-8.1,11.7-14.6c29.8-22.2,60.8-42.5,93-61c73.3-42.2,150.9-74,232.6-95.6
		c28.1-7.4,56.5-13.7,85.3-18.3c4.4-0.7,8.7-2.2,13.2-1.6c0.3,0,0.6,0.3,0.7,0.5c0.1,0.3,0.2,0.8,0.1,0.9c-1.4,1.7-2.8,3.4-4.4,5
		c-15,14.9-29.6,30.1-43.6,45.9c-75.2,84.8-134,179.7-176.6,284.8c-5.3,13.2-2.3,9.3-14,17.2c-111.4,75.5-203.5,169.7-276.4,282.9
		c-1.9,2.9-3.9,5.8-5.9,8.7c-0.1,0.2-0.7,0.4-0.9,0.3c-0.5-0.2-1.4-0.6-1.4-0.9c-0.4-2.8-0.7-5.7-0.8-8.6
		c-0.3-9.9-0.6-19.8-0.7-29.7C982.2,1587.4,982.3,1577.8,982.3,1568.2z"/>
	<path class="st5" d="M2067.1,1664.4c6.1,0,12.1,1.1,18,2.1c30,5,57.7,16.1,83.9,31.4c2.4,1.4,3.8,3.2,4.7,5.8
		c6.7,19,11.8,38.5,14.4,58.5c1.4,10.4,2.3,21,2,31.6c-0.1,3.8-0.3,7.7-0.7,11.5c-0.2,1.7,0.6,4.2-1.8,4.8c-1.7,0.4-2.6-1.6-3.6-2.7
		c-19.6-22.4-42.6-40.4-69.1-53.9c-0.9-0.4-1.7-0.9-2.5-1.3c-1.5-0.7-2.5-2-3-3.5c-0.5-1.5-1-3-1.5-4.6
		c-8.3-26.5-20.8-50.8-37.7-72.8c-1.2-1.5-2.2-3.1-3.2-4.7C2066.6,1666,2066.9,1665.3,2067.1,1664.4z"/>
	<path class="st5" d="M2152.4,1911.6c-0.6-1.7-1.4-3.4-1.9-5.2c-6.7-22.2-16.7-42.8-29.7-62c-0.9-1.3-1.9-2.6-2.6-4
		c-0.5-1.1-1-2.4-1-3.6c0-2.6,0.2-5.1,0.3-7.7c0.5-9.6,0.5-19.2,0.2-28.8c-0.4-9.9-1.7-19.7-3.5-29.5c-0.5-2.5-1.3-5-0.7-7.5
		c0.2-0.8,0.6-1.2,1.4-0.9c1.2,0.4,2.4,0.8,3.5,1.4c25.5,14,47.3,32.6,65.6,55.2c0.6,0.7,1.3,1.5,1.7,2.3c0.5,1.1,1.1,2.4,1.1,3.6
		c0,1.9-0.2,3.8-0.6,5.7c-5.3,28.3-15.4,54.7-30.7,79C2155,1910.6,2154.2,1911.6,2152.4,1911.6z"/>
	<path class="st5" d="M2094,1970.8c1-6.3,2.1-12.6,3-18.9c1.8-12.7,2.7-25.4,1.9-38.2c-0.1-1,0-1.9-0.2-2.9
		c-0.5-3.3,0.4-6.3,1.7-9.3c4.6-10.6,8.1-21.5,10.9-32.6c1.4-5.2,2.4-10.5,3.7-15.8c0.1-0.4,0.9-0.7,1.4-1c0.2-0.1,0.6,0.2,0.9,0.4
		c0.2,0.2,0.4,0.5,0.6,0.7c0.4,0.5,0.8,1,1.1,1.5c12,19.1,20.8,39.5,26.7,61.2c0.3,0.9,0.4,1.9,0.6,2.8c0.4,2,0.2,3.8-1,5.5
		c-0.2,0.3-0.4,0.5-0.6,0.8c-13.5,18-29.3,33.7-47.5,46.9c-0.3,0.2-0.5,0.4-0.8,0.5c-0.6,0.1-1.4,0.3-1.8,0
		C2094.2,1972.1,2094.2,1971.3,2094,1970.8z"/>
	<path class="st5" d="M2091.8,1923.9c0.1,0.9,0.3,1.9,0.2,2.8c-0.8,16.6-2.8,33.1-7.1,49.3c-0.2,0.9-0.4,1.9-0.7,2.8
		c-0.6,1.5-1.5,2.8-2.9,3.7c-1.9,1.2-3.8,2.3-5.8,3.4c-12.3,6.8-25.1,12.6-38.6,17c-0.7,0.2-1.4,0.3-1.7-0.4c-0.2-0.5,0-1.2,0.2-1.7
		c0.5-0.8,1.1-1.6,1.7-2.3c8.8-10.7,15.9-22.4,21.3-35.2c1.1-2.6,2.4-5.1,4.7-7.2c10.1-9,18.5-19.5,25.6-31c0.3-0.5,0.8-1.1,1.3-1.3
		C2090.4,1923.6,2091.1,1923.9,2091.8,1923.9z"/>
</g>
</svg>
