<svg id="Layer_1" data-name="Layer 1" xmlns="http://www.w3.org/2000/svg" xmlns:xlink="http://www.w3.org/1999/xlink" viewBox="0 0 3328 2000"><defs><style>.cls-1{fill:#645049;}.cls-2{fill:#655f61;}</style></defs><title>Type</title><image width="10559" height="10559" transform="translate(1336 -267) scale(0.24)" xlink:href="Colorful.png"/><path class="cls-1" d="M104.92,1086.17q0-32,20-85.38l3.45-10.33q4.82-11.37,17.73-11.36a36,36,0,0,1,22.55,7.4q9.63,7.41,9.64,18.42,0,5.51-1,7.92-15.84,39.58-15.83,63.34,1,79.18,159.74,79.19,54.39,0,99.67-9.64t71.78-27q26.51-17.39,26.51-37.53a84.35,84.35,0,0,0-9.47-38.73,130.25,130.25,0,0,0-22.55-32,238.53,238.53,0,0,0-32.71-27.37,342.47,342.47,0,0,0-33.56-21.52q-13.95-7.57-32.37-17T366.23,933q7.56-43.72,13.25-57t22.21-25q43.38-28.92,106.9-58.53t121.7-48.2a27.26,27.26,0,0,1,10-2.41q16.53,0,16.53,25.82a126.53,126.53,0,0,1-4.14,30.64Q539.74,832.45,428.2,898.88,450.57,910.94,468,922a397.55,397.55,0,0,1,38.73,28.57Q528,968.09,542.15,986t23.93,42.35a140,140,0,0,1,10.16,50.61q-.36,41.31-33.23,72.12t-90.2,47q-57.31,16.18-130.65,16.18-99.84,0-154.75-28.06t-61.8-89A62.13,62.13,0,0,1,104.92,1086.17ZM400.31,782.86q-3.8-12.39-3.79-18.24v-6.89q47.52-30.29,75.23-42.86t96.22-36q9.64,0,11.36,19.28.34,4.13.52,10.16a59.44,59.44,0,0,0,.52,7.74q-62,21.69-91.24,34.77t-76.77,43.38a6.18,6.18,0,0,1-3.1,1Q404.1,795.26,400.31,782.86Z"/><path class="cls-1" d="M775.23,1175.33q-5.87-43.71-28.92-107.07-8.61-23.4-9.3-25.3a19,19,0,0,1-.69-6q0-13.08,13.09-26T775.05,998q12.57,0,17.05,13.43,13.75,37.53,25.47,86.07t11.71,82.11q0,33.57-17.56,68.51a236.43,236.43,0,0,1-46,62.83,346.75,346.75,0,0,1-64,49.4q-35.62,21.51-71.78,31.16a27.21,27.21,0,0,1-8.6,1.37q-14.82,0-28.92-10.67t-14.12-19.45q0-8.77,9.3-12.22Q698.11,1313.39,747.68,1248,775.22,1210.8,775.23,1175.33Z"/><path class="cls-1" d="M922.58,1194.27a50.13,50.13,0,0,1-5.51-22.72q0-24.79,16.52-24.79a25.35,25.35,0,0,1,6.54,1q43.73,11.71,82.29,11.71t67.3-15.32q28.74-15.32,37-43.21-12.39-40.62-49.92-74.71-26.16-24.09-70.92-56.11-6.89-4.47-10-6.89-8.26-5.85-8.27-18.93t8.27-25.82q8.25-12.74,18.24-12.74a17.17,17.17,0,0,1,7.92,2.41q57.15,39.93,79.18,59.21,74.37,64.73,74.37,138.06v9q-7.23,48.19-53,77.29t-108.1,29.09a251.55,251.55,0,0,1-77.46-12.4Q928.07,1205.29,922.58,1194.27Z"/><path class="cls-1" d="M1193.52,1382.24q-14.13-10.66-14.12-19.45t9.3-12.22q110.5-37.18,160.09-102.59,27.53-37.18,27.54-72.65,0-7.56-3.1-20-6.2-31-13.43-47.86-11.7-27.54-11.7-34.43,0-13.07,12.91-25.64t25.65-12.57a15.18,15.18,0,0,1,13.08,6.89,46.31,46.31,0,0,1,7.92,14.28c1.37,4.48,2.41,7.87,3.09,10.16q2.07,6.54,4.14,16.52a229.05,229.05,0,0,0,8.6,23.41,98.94,98.94,0,0,0,11.88,19.46,59.59,59.59,0,0,0,18.08,16q23.74,13.77,63.69,13.77v58.87q-60.26,0-88.48-18.25-5.17,42.35-35.46,83.66a296.64,296.64,0,0,1-73.51,70.57q-43.2,29.27-88.65,41.32a27.21,27.21,0,0,1-8.6,1.37Q1207.63,1392.91,1193.52,1382.24Z"/><path class="cls-1" d="M1496.82,1205.29q-8.94-9-9-20.14t8.61-20.49q8.61-9.3,20-9.29h9q154.23,0,158.71-74V1081a82.66,82.66,0,0,0-9.47-37.87,132.48,132.48,0,0,0-22.38-32q-12.9-13.44-32.88-27.55t-33.73-21.86q-13.79-7.74-32.37-17.21t-22-11.53q7.57-44.41,12.91-57.33T1566,851q43.38-28.92,106.9-58.53t121.7-48.2a27.79,27.79,0,0,1,10.33-2.41q16.53,0,16.52,25.82,0,11.37-4.82,30.64-111.54,33.75-223.77,100.53,22.71,12.39,40.1,23.58a424.52,424.52,0,0,1,38.91,28.92q21.51,17.75,35.63,36t23.75,43a137.2,137.2,0,0,1,9.64,50.1q0,25.3-7.57,44.92t-20.14,33a129.6,129.6,0,0,1-30.64,23.76,183.77,183.77,0,0,1-37,16.18,317,317,0,0,1-41.66,9.64q-37.17,6.2-82.62,6.2h-4.82Q1505.79,1214.24,1496.82,1205.29Zm63.69-445.15v-2.41Q1608,727.45,1635.74,715t96.57-36.15q7.56,0,9.64,10a81.84,81.84,0,0,1,1.89,16.35,106.24,106.24,0,0,0,.52,10.84q-62,21.69-91.24,34.77t-76.77,43.38a4.23,4.23,0,0,1-2.06,1q-5.18,0-9.47-12.74T1560.51,760.14Z"/><path class="cls-2" d="M118.88,1606.88c-1.42-1.06-2.12-2-2.12-2.92a1.86,1.86,0,0,1,1.39-1.83q16.59-5.58,24-15.39,4.13-5.58,4.13-10.91a13.08,13.08,0,0,0-.47-3,38.29,38.29,0,0,0-2-7.18q-1.76-4.14-1.76-5.17a5.45,5.45,0,0,1,1.94-3.85,5.63,5.63,0,0,1,3.85-1.88,2.26,2.26,0,0,1,2,1,6.94,6.94,0,0,1,1.19,2.14l.47,1.53c.2.65.41,1.48.62,2.48a31.51,31.51,0,0,0,1.29,3.51,14.49,14.49,0,0,0,1.78,2.92,8.8,8.8,0,0,0,2.71,2.4c2.38,1.38,5.56,2.07,9.56,2.07v8.83q-9,0-13.28-2.74a26.63,26.63,0,0,1-5.32,12.56,44.64,44.64,0,0,1-11,10.59,43.73,43.73,0,0,1-13.3,6.2,4.05,4.05,0,0,1-1.29.21A7.11,7.11,0,0,1,118.88,1606.88Z"/><path class="cls-2" d="M164.42,1580.33a4.15,4.15,0,0,1-1.37-3,4.29,4.29,0,0,1,1.34-3.07,4.18,4.18,0,0,1,3.05-1.37h6.46q13.07,0,15.6-12.87l1.14-5.26c.24-1.35,1.17-2,2.79-2a6.15,6.15,0,0,1,3.43,1.06c1.09.71,1.56,1.49,1.42,2.35l-.93,5.48a38.13,38.13,0,0,1-2,7q4,4.29,11.47,4.29h1.39v8.83H205q-9,0-14.62-5.58-5.58,5.58-14.73,5.58h-8.21A4.21,4.21,0,0,1,164.42,1580.33Zm19.24-52.8a3.12,3.12,0,0,1,1-2.27l3.26-3.36a3.25,3.25,0,0,1,4.65,0l3.36,3.36a3.12,3.12,0,0,1,0,4.54l-3.36,3.36a3.25,3.25,0,0,1-4.65,0l-3.26-3.36A3.12,3.12,0,0,1,183.66,1527.53Z"/><path class="cls-2" d="M208.15,1572.84h4a36.89,36.89,0,0,0,8.47-1,1.9,1.9,0,0,1-.46-.31,1.29,1.29,0,0,0-.52-.31,14,14,0,0,1-7-12.61,23.46,23.46,0,0,1,2.82-10.8,26.18,26.18,0,0,1,7.21-8.88,6.53,6.53,0,0,1-1.09-2.51,13.57,13.57,0,0,1-.57-3.75c0-1.92.62-2.89,1.86-2.89a2.88,2.88,0,0,1,.67,0q23.25,7,33.92,15.68t11.34,20.33a15.77,15.77,0,0,1-5.06,11.37,16.78,16.78,0,0,1-11.89,4.49,40.92,40.92,0,0,1-8.75-1.26A87.33,87.33,0,0,1,232,1577a42.54,42.54,0,0,1-20.2,4.65h-3.52a4.69,4.69,0,0,1-3.05-1.42,3.93,3.93,0,0,1-1.29-3,4.65,4.65,0,0,1,1.32-3A3.9,3.9,0,0,1,208.15,1572.84Zm17-9.71a33.45,33.45,0,0,0,6.09,3.72,27.54,27.54,0,0,0,4.24-3.9,10.37,10.37,0,0,0,2.12-3.34,5.27,5.27,0,0,0,.72-3.23,19.81,19.81,0,0,0-.65-4.88,13.36,13.36,0,0,0-2.11-4.57,4.18,4.18,0,0,0-3.39-2c-2,0-4.22,1.32-6.56,4s-3.51,5.28-3.51,7.9A7.73,7.73,0,0,0,225.15,1563.13Zm15.44,7.33q7.5,2.38,11.5,2.38a9.74,9.74,0,0,0,6.22-1.78,6.37,6.37,0,0,0,2.23-5.27c0-2.33-1.23-5-3.67-8a42.69,42.69,0,0,0-10.44-8.7,25.76,25.76,0,0,1,.62,5.86,20.7,20.7,0,0,1-.62,5.45A23,23,0,0,1,240.59,1570.46Z"/><path class="cls-2" d="M306.15,1572.32a20.29,20.29,0,0,1,2.92-9.58,30.21,30.21,0,0,1,7.83-9.17,1.63,1.63,0,0,1,.83-.21,3.08,3.08,0,0,1,2.27,1.47,4.46,4.46,0,0,1,1.14,2.51c0,.69-.14,1.14-.42,1.34a13.07,13.07,0,0,0-4.08,4,8.87,8.87,0,0,0-1.91,4.72,2.36,2.36,0,0,0,.41,1.4c.55.17.88.38,1,.62l3.36,3.36a3.37,3.37,0,0,1,0,4.65l-3.36,3.25a3.31,3.31,0,0,1-4.7,0l-3.66-3.67A6.35,6.35,0,0,1,306.15,1572.32Z"/><path class="cls-2" d="M331.16,1587.92q0-8.06,4.49-19.11c.17-.52.86-2.21,2.07-5.09s1.93-4.55,2.17-5a2.35,2.35,0,0,1,2.3-1.6,5.1,5.1,0,0,1,3.15,1.19,3.3,3.3,0,0,1,1.52,2.53,2.13,2.13,0,0,1-.2,1q-.21.39-2.17,5.14c-1.31,3.17-2.05,4.92-2.22,5.27a37.64,37.64,0,0,0-3.1,13.58,14.61,14.61,0,0,0,1.06,5.76,10.29,10.29,0,0,0,2.71,3.93,13.72,13.72,0,0,0,4,2.35,26.52,26.52,0,0,0,9.3,1.5,49.65,49.65,0,0,0,15.91-2.53,35.87,35.87,0,0,0,11.62-6.25,3.22,3.22,0,0,0,1.4-2.25,2.83,2.83,0,0,0-.67-1.86,6.77,6.77,0,0,0-2-1.52c-.91-.49-1.7-.88-2.37-1.19s-1.63-.69-2.87-1.14-2-.74-2.32-.88a10.32,10.32,0,0,1-5.22-4,11.63,11.63,0,0,1-1.71-6.46,19.7,19.7,0,0,1,2.07-8.27,26.11,26.11,0,0,1,7.9-10.13,18.5,18.5,0,0,1,11.53-3.87q6.45,0,13.63,4.86l-3.56,6.61a22.7,22.7,0,0,0-7.9-1.71H391a14.84,14.84,0,0,0-6.39,1.35,13.12,13.12,0,0,0-4.52,3.3c-2.2,2.73-3.3,5.2-3.3,7.44,0,1,.24,1.59.72,1.76a76.82,76.82,0,0,1,9,3.69l3,1.81a11.26,11.26,0,0,1,2.22,1.71c.55.57,1.1,1.19,1.65,1.88a7.38,7.38,0,0,1,1.55,4.6q0,3.72-3.51,8a3.24,3.24,0,0,1-.88,1.11l-.83.75a42.09,42.09,0,0,1-14.41,8.76,55.83,55.83,0,0,1-19.89,3.33,31.78,31.78,0,0,1-13.49-2.69,19.31,19.31,0,0,1-5.58-3.67,16.11,16.11,0,0,1-3.74-5.81A21.92,21.92,0,0,1,331.16,1587.92Z"/><path class="cls-2" d="M432.37,1575.83a80.46,80.46,0,0,0-4.34-16.06c-.87-2.34-1.33-3.61-1.4-3.8a2.84,2.84,0,0,1-.1-.9,6.91,6.91,0,0,1,5.81-5.84,2.56,2.56,0,0,1,2.56,2,119.85,119.85,0,0,1,3.82,12.92,54.21,54.21,0,0,1,1.76,12.32,22.73,22.73,0,0,1-2.64,10.28,35.07,35.07,0,0,1-6.9,9.43,52,52,0,0,1-9.6,7.41,41.6,41.6,0,0,1-10.78,4.68,4,4,0,0,1-1.29.21,7.13,7.13,0,0,1-4.34-1.61c-1.41-1.06-2.12-2-2.12-2.92a1.87,1.87,0,0,1,1.4-1.83q16.59-5.58,24-15.39Q432.37,1581.16,432.37,1575.83Z"/><path class="cls-2" d="M455.77,1606.91c-1.41-1.05-2.12-2-2.12-2.92a1.88,1.88,0,0,1,1.4-1.86q11.88-4,18.77-10t8.76-12.21a38.83,38.83,0,0,1-11.73,2.22q-6.3,0-9.89-3.39t-3.59-10.66v-.62a26.15,26.15,0,0,1,5.17-15q4.69-6.12,10.85-6.12a13,13,0,0,1,9.32,4,25.83,25.83,0,0,1,6.33,10.79,50.19,50.19,0,0,1,2.27,15.3,24.34,24.34,0,0,1-4.47,13.48,43.22,43.22,0,0,1-11.28,11.57,44.66,44.66,0,0,1-14.16,6.77,4.34,4.34,0,0,1-1.4.21A7.07,7.07,0,0,1,455.77,1606.91Zm9.25-39.6q0,5.54,7.13,5.53a29.23,29.23,0,0,0,10.07-2,29.74,29.74,0,0,0-3.54-11.18q-2.55-4.26-5.42-4.26t-5.56,3.79a12.77,12.77,0,0,0-2.68,7.31Z"/><path class="cls-2" d="M504.49,1564.57v-51.66c0-.55.39-1,1.18-1.29a7.69,7.69,0,0,1,2.79-.47c2.52,0,3.84.52,4,1.55v50.12q0,5.27,2.64,7.64a9,9,0,0,0,6.25,2.38h.52v8.83h-.52a21.72,21.72,0,0,1-6.82-1,13.66,13.66,0,0,1-4.86-2.61,13.34,13.34,0,0,1-3-3.9A20.41,20.41,0,0,1,504.49,1564.57Z"/><path class="cls-2" d="M518.82,1580.33a4.18,4.18,0,0,1-1.37-3,4.26,4.26,0,0,1,1.35-3.07,4.17,4.17,0,0,1,3.05-1.37h6.45q13.08,0,15.61-12.87l1.13-5.26c.24-1.35,1.17-2,2.79-2a6.18,6.18,0,0,1,3.44,1.06c1.08.71,1.56,1.49,1.42,2.35l-.93,5.48a38.12,38.12,0,0,1-2,7q4,4.29,11.47,4.29h1.4v8.83H559.4q-9,0-14.62-5.58-5.58,5.58-14.72,5.58h-8.21A4.23,4.23,0,0,1,518.82,1580.33Zm19.25-52.8a3.08,3.08,0,0,1,1-2.27l3.25-3.36a3.25,3.25,0,0,1,4.65,0l3.36,3.36a3.12,3.12,0,0,1,0,4.54l-3.36,3.36a3.25,3.25,0,0,1-4.65,0l-3.25-3.36A3.08,3.08,0,0,1,538.07,1527.53Z"/><path class="cls-2" d="M559.56,1580.28a4.11,4.11,0,0,1-1.29-3,4.33,4.33,0,0,1,1.31-3.07,4.05,4.05,0,0,1,3-1.37h14.67q7.9,0,11.26-2.33a7.65,7.65,0,0,0,3.36-6.71,7.91,7.91,0,0,0-.11-1.5,27.06,27.06,0,0,1-10,1.81,19.19,19.19,0,0,1-10.95-3.1,11.15,11.15,0,0,1-3.59-4.34,14.62,14.62,0,0,1-1.32-6.41,24.14,24.14,0,0,1,4.89-15.34q4.88-6.26,11.59-6.25t11.65,7.15q4.94,7.15,5.76,20.74a55.47,55.47,0,0,1,.42,6.26q0,9.6-5.32,14.23T577,1581.67H562.56A4.52,4.52,0,0,1,559.56,1580.28Zm16.4-26.4a9.92,9.92,0,0,0,5.37,1.45,23.7,23.7,0,0,0,5.77-.68,16.75,16.75,0,0,0,4-1.39q-1.08-7.76-3.61-11.7t-5.53-4c-2,0-3.82,1.1-5.45,3.28a15.3,15.3,0,0,0-2.82,8.25A5.2,5.2,0,0,0,576,1553.88Zm-.8-42.05a3.15,3.15,0,0,1,1-2.28l3.26-3.36a3.25,3.25,0,0,1,4.65,0l3.36,3.36a3.13,3.13,0,0,1,0,4.55l-3.36,3.36a3.25,3.25,0,0,1-4.65,0l-3.26-3.36A3.14,3.14,0,0,1,575.16,1511.83Z"/></svg>