<?xml version="1.0" encoding="utf-8"?>
<!-- Generator: Adobe Illustrator 22.1.0, SVG Export Plug-In . SVG Version: 6.00 Build 0)  -->
<svg version="1.1" id="Layer_1" xmlns="http://www.w3.org/2000/svg" xmlns:xlink="http://www.w3.org/1999/xlink" x="0px" y="0px"
	 viewBox="0 0 512 512" style="enable-background:new 0 0 512 512;" xml:space="preserve">
<style type="text/css">
	.st0{fill:#424242;}
	.st1{fill:#FFFFFF;}
	.st2{fill:#F9BC38;}
	.st3{fill:#F7AB07;}
</style>
<g>
	<g>
		<path d="M249.5,0h12c40.9,0.8,81.8,1.1,122.5,4.9c21.6,2.2,43.5,5.1,63.7,13.4c16.6,6.7,30.6,18.7,41,33.1
			c11.1,16,14.9,35.7,17.5,54.6c5.5,44.6,5.2,89.6,5.8,134.5v51c-0.8,35.9-1,71.9-5,107.6c-2.2,18-5,36.5-13.2,52.9
			c-5.6,11.4-14.5,20.7-24.1,28.8c-17.9,14.5-41,20.2-63.4,23.6c-47.6,6.7-95.9,6.4-143.9,7.6h-13c-36.8-0.7-73.7-1.2-110.5-3.9
			c-22-1.9-44.2-4.1-65.4-10.8c-18-5.4-34.4-16-46.2-30.8c-14.1-16.9-18-39.4-20.8-60.6c-5.3-46.3-5.2-93-6.7-139.5v-20.8
			c1.1-36.9,1.4-73.8,4-110.7c2-24.6,3.6-49.8,13.3-72.8C26.8,41.2,45.6,25,67,17c19.5-7.3,40.3-10,60.9-12.2
			C168.3,1.1,208.9,0.8,249.5,0z M321,24.1C308.5,30.1,296.4,37,285,45c-1,0.6-1.7,1.5-1.9,2.7c-1.1,0.8-2.3,1.7-3.4,2.5
			c-3.7,0.3-6,3.7-8.9,5.7c-4.2,4.2-10.4,7.3-12.7,12.9c-1.5,1.5-3,3-4.5,4.5c-7.1,3.5-10.9,11.6-16.7,16.9
			c-34.9-2-70.6,7.4-99,27.9c-1.1,0.6-1.7,1.5-1.8,2.7c-0.1,0.1-0.3,0.2-0.4,0.3l-1.3-0.3C89.9,152.8,65.3,209.6,71.2,264
			c1.9,21.4,8.5,42.4,18.6,61.3c1.4,2.4,0.2,5.1,0,7.6c-3.8,24.9-9.6,50.5-24.5,71.3c-5.3,8.2-14.1,13.1-20.4,20.3
			c39.9,5.8,79.6-8,113.7-27.9c2.1-1,4.3-3.3,6.8-1.9c23.3,10.2,49.3,14.7,74.7,12c2.3,1.9,3.6,5.3,6.6,6.3c1.5,1.8,3,3.7,4.5,5.5
			c0.9,3.6,4.1,7.1,7.5,8.5c3.4,3.6,6.9,7.1,10.5,10.5c1.3,4.3,6,6.3,8.9,9.5c3.5,2.3,6.2,6.5,10.5,7c1.1,0.9,2.3,1.7,3.4,2.6
			c0.3,1.1,0.9,2,1.9,2.6c17.5,12.3,36.7,21.9,56.8,29.2c1.6,0.5,3.8,1.2,4.7-0.7c28-38.1,53.9-77.8,76.9-119.2
			c7.8-14.2,15.8-28.5,20.8-44c11.5-35.9,15-74.4,10.2-111.9c-7.8-61.5-40-119.7-89-157.9c-0.5-0.1-1.6-0.3-2.1-0.4
			c-2.8-2.2-5.5-4.4-8.4-6.5c-0.2-0.4-0.6-1.3-0.8-1.8c-11.3-8.5-23.5-15.7-36.1-21.8C325.1,23,322.9,23.1,321,24.1z"/>
	</g>
</g>
<g>
	<path class="st0" d="M321,24.1c1.8-1,4.1-1.1,5.9,0c12.7,6.1,24.9,13.4,36.1,21.8c0.2,0.5,0.6,1.4,0.8,1.8
		c-12.5-9-25.6-17.6-39.9-23.4c-14.5,6.2-28.1,14.3-41,23.4c0.3-1.2,0.9-2.1,1.9-2.7C296.4,37,308.5,30.1,321,24.1z"/>
	<path class="st0" d="M270.8,55.8c2.9-2,5.2-5.4,8.9-5.7c-7.5,5.8-14.8,11.9-21.5,18.5C260.5,63.2,266.6,60,270.8,55.8z"/>
	<path class="st0" d="M372.3,54.2c0.5,0.1,1.6,0.3,2.1,0.4c48.9,38.2,81.1,96.4,89,157.9c4.8,37.4,1.3,75.9-10.2,111.9
		c-5.1,15.5-13,29.8-20.8,44c-23,41.3-49,81-76.9,119.2c-0.9,1.9-3.1,1.2-4.7,0.7c-20.1-7.2-39.3-16.9-56.8-29.2
		c-1-0.6-1.6-1.5-1.9-2.6c18.8,13.5,39.6,24.4,61.7,31.3c31.8-43,60.9-88,85.9-135.3c11.6-21.1,18.3-44.5,21.8-68.3
		c9.2-57.2-2.4-117.5-32.8-166.9C414.3,92.8,394.3,72.1,372.3,54.2z"/>
	<path class="st0" d="M237,90c5.8-5.2,9.7-13.4,16.7-16.9c-5.1,5.1-9.8,10.6-14.4,16.2c-1.9,3.3-6.2,1.5-9.3,1.9
		c-33.5-1.2-66.9,9.8-93.9,29.4c0.1-1.2,0.8-2.1,1.8-2.7C166.4,97.4,202.1,88,237,90z"/>
	<path class="st0" d="M71.2,264c-5.9-54.4,18.8-111.2,63.2-143.4l1.3,0.3c-39,28.6-63.5,75.7-64,124.1c-0.8,28.3,6.5,56.5,19.9,81.4
		c-1.3,15-4.5,29.9-8.9,44.4c-4.9,15.4-11.8,30.9-23.6,42.3c-3.8,3.8-8.2,6.8-12,10.5c41.2,5.6,81.4-10.4,116.2-31.1
		c24.2,10.5,51.1,15.7,77.4,13c2.2,2.3,4,4.9,5.9,7.4c-3-1-4.3-4.3-6.6-6.3c-25.3,2.7-51.3-1.8-74.7-12c-2.5-1.3-4.7,0.9-6.8,1.9
		c-34.1,19.9-73.8,33.7-113.7,27.9c6.3-7.2,15-12.1,20.4-20.3C80.2,383.5,86,357.8,89.8,333c0.2-2.5,1.3-5.3,0-7.6
		C79.7,306.4,73.1,285.4,71.2,264z"/>
	<path class="st0" d="M154.4,232.5c10.4-2.6,21.8,4.3,24.1,14.9c3.6,11.7-6.1,25.4-18.5,25.3c-9.6,0.9-18.8-6.5-20.7-15.8
		C136.6,246.5,143.9,234.9,154.4,232.5z"/>
	<path class="st0" d="M221.4,232.5c9.7-2.2,20.2,3.3,23.5,12.6c4.2,10-1.4,22.5-11.5,26.3c-10.3,4.4-23.3-1.7-26.4-12.4
		C202.9,248.1,210.1,235,221.4,232.5z"/>
	<path class="st0" d="M283,234.4c4.5-2.2,9.7-2.6,14.7-1.9c10.9,2.4,18.2,15.1,14.6,25.7c-2.3,8.7-11.1,15.4-20.2,14.5
		c-11.8,0.1-21.3-12.3-19-23.8C274,242.9,278,237.9,283,234.4z"/>
	<path class="st0" d="M251.1,418.4c2.5,2.8,4.9,5.7,7.5,8.5C255.2,425.5,252,422,251.1,418.4z"/>
	<path class="st0" d="M269.1,437.3c6.2,5.9,12.7,11.3,19.5,16.5c-4.3-0.6-7.1-4.7-10.5-7C275.2,443.7,270.5,441.6,269.1,437.3z"/>
</g>
<g>
	<g>
		<path class="st1" d="M283,47.7c12.8-9.1,26.5-17.3,41-23.4c14.3,5.9,27.4,14.4,39.9,23.4c2.8,2.1,5.6,4.3,8.4,6.5
			c22,17.9,42,38.6,56.4,63.2c30.4,49.4,41.9,109.7,32.8,166.9c-3.5,23.7-10.3,47.1-21.8,68.3c-25,47.3-54.1,92.3-85.9,135.3
			c-22.1-6.9-42.9-17.9-61.7-31.3c-1.1-0.8-2.3-1.7-3.4-2.6c-6.8-5.2-13.3-10.6-19.5-16.5c-3.6-3.4-7.1-6.9-10.5-10.5
			c-2.6-2.8-5-5.6-7.5-8.5c-1.5-1.8-3-3.6-4.5-5.5c-2-2.5-3.7-5.1-5.9-7.4c-26.3,2.8-53.2-2.5-77.4-13
			c-34.8,20.6-75,36.7-116.2,31.1c3.8-3.7,8.2-6.7,12-10.5c11.8-11.4,18.7-26.9,23.6-42.3c4.3-14.5,7.6-29.4,8.9-44.4
			c-13.4-24.8-20.7-53.1-19.9-81.4c0.5-48.4,25-95.5,64-124.1c0.1-0.1,0.3-0.2,0.4-0.3c27-19.6,60.4-30.7,93.9-29.4
			c3.1-0.4,7.4,1.5,9.3-1.9c4.5-5.6,9.3-11,14.4-16.2c1.5-1.5,3-3,4.5-4.5c6.8-6.7,14-12.8,21.5-18.5
			C280.8,49.3,281.9,48.5,283,47.7z M244.2,100.2c17.9,27.1,37,53.6,55.2,80.5c12.5-6.6,24-15.5,36.3-22.6
			c21.4,26.5,32.9,60.8,31.8,94.8c-0.4,33.6-13.8,66.2-35.1,91.9c-0.4,0.1-1.1,0.4-1.5,0.5c-12-7.7-24-15.5-36-23.1
			c-16.5,23.8-33.1,47.6-49.3,71.6c25.5,36.7,61.9,66.3,104.2,81.2c28.9-39.7,55.6-81.1,78.8-124.4c8.6-15.7,15.1-32.5,18.9-50
			c8.5-37.8,8.8-77.7-1.4-115.2c-8.2-32-23.5-62.5-44.5-88c-21.7-25-47.6-47.2-77.6-61.5C292.7,50.4,265.3,72.9,244.2,100.2z
			 M118.7,142.7c-43.9,44.5-55.1,116.9-27.1,172.7c2.3,4.9,6.3,10,4.5,15.7c-4.5,31.4-12.7,64.3-35.2,88c3.8,1.5,8,0.8,11.9,0.7
			c31.6-2.3,61.3-15.5,88.2-31.5c1.4-0.7,2.9-0.4,4.4-0.5c21.8,11,47.1,14.9,71.4,13.2c-1.2-2.3-2.6-4.5-3.8-6.9
			c17.7-28.1,37.6-55,56.2-82.6c1-1.2,2.1-4.1,4.1-2.9c12,7.2,23.3,15.6,35.5,22.4c4.4-3.4,6.9-9.2,10-13.9
			c25.8-43.8,23.7-102.1-5.4-143.8c-1.5-0.5-2.8,0.7-4,1.4c-10.5,7.1-21.6,13.6-31.9,20.9c-2.3-1.8-4.2-4-5.7-6.5
			c-19.8-28.6-39.5-57.2-59.2-85.8c-1.7-2-1.1-4.6-1-7C189.8,94,147.3,111.9,118.7,142.7z"/>
	</g>
</g>
<g>
	<path class="st2" d="M244.2,100.2c21-27.3,48.5-49.8,79.8-64.3c30,14.3,55.9,36.5,77.6,61.5c21,25.6,36.3,56,44.5,88
		c-5.8,46.5-28.9,90-60.9,123.8c-15.2,14.8-32.5,28.3-52.7,35.6c21.3-25.7,34.7-58.3,35.1-91.9c1-34-10.5-68.3-31.8-94.8
		c-12.3,7.1-23.8,16-36.3,22.6C281.2,153.8,262.2,127.3,244.2,100.2z"/>
</g>
<g>
	<path class="st3" d="M385.2,309.3c32-33.8,55.1-77.4,60.9-123.8c10.2,37.5,9.9,77.4,1.4,115.2c-3.8,17.5-10.3,34.3-18.9,50
		c-23.2,43.3-49.9,84.8-78.8,124.4c-42.3-14.9-78.7-44.5-104.2-81.2c16.2-24,32.8-47.8,49.3-71.6c12.1,7.6,24,15.4,36,23.1
		c0.4-0.1,1.1-0.4,1.5-0.5C352.7,337.6,370,324,385.2,309.3z"/>
</g>
</svg>
