<?xml version="1.0" encoding="utf-8"?>
<!-- Generator: Adobe Illustrator 22.1.0, SVG Export Plug-In . SVG Version: 6.00 Build 0)  -->
<svg version="1.1" id="Layer_1" xmlns="http://www.w3.org/2000/svg" xmlns:xlink="http://www.w3.org/1999/xlink" x="0px" y="0px"
	 viewBox="-338 260 512 512" enable-background="new -338 260 512 512" xml:space="preserve">
<path id="linkedin-circle-icon" d="M-87.251,269.938c-136.177,0-246.568,110.392-246.568,246.575
	c0,136.184,110.392,246.575,246.568,246.575c136.184,0,246.575-110.392,246.575-246.575
	C159.324,380.33,48.932,269.938-87.251,269.938z M-153.036,635.721h-54.139V460.817h54.139V635.721z M-180.366,437.914
	c-17.679,0-32.013-14.454-32.013-32.273c0-17.825,14.334-32.273,32.013-32.273c17.685,0,32.019,14.448,32.019,32.273
	C-148.347,423.46-162.681,437.914-180.366,437.914z M49.849,635.721H-4.03c0,0,0-66.627,0-91.81
	c0-25.183-9.565-39.236-29.477-39.236c-21.665,0-32.989,14.642-32.989,39.236c0,26.936,0,91.81,0,91.81h-51.925V460.817h51.925
	v23.558c0,0,15.618-28.895,52.708-28.895c37.089,0,63.637,22.648,63.637,69.497C49.849,571.823,49.849,635.721,49.849,635.721z"/>
</svg>
