<?xml version="1.0" encoding="utf-8"?>
<!-- Generator: Adobe Illustrator 22.1.0, SVG Export Plug-In . SVG Version: 6.00 Build 0)  -->
<svg version="1.1" id="Layer_1" xmlns="http://www.w3.org/2000/svg" xmlns:xlink="http://www.w3.org/1999/xlink" x="0px" y="0px"
	 viewBox="0 0 512 512" style="enable-background:new 0 0 512 512;" xml:space="preserve">
<style type="text/css">
	.st0{stroke:#000000;stroke-width:4;stroke-miterlimit:10;}
</style>
<g>
	<path class="st0" d="M242.1,0h28.3c12.1,1.7,24.3,2.4,36.2,5.2c-4.5,2.5-10.1-0.3-14.3,2.1c-6.8,10.6-15.7,19.8-25.6,27.4
		c-9.3,10.3-22,16.1-34.2,22.1c-7.4,1.9-14.2,5.5-21.2,8.4c-9,2.6-18.6,2.1-27.7,3.8c-11.7-0.6-23.8,0.7-35.2-2.7
		c-12.5-0.2-23.5-7.2-34.5-12.3c-4.8-3.7-9.6,1.8-14.8,1.3c37.2-30.2,83.3-49.2,131-53.9C234.1,1,238.1,0.7,242.1,0z"/>
</g>
<g>
	<path class="st0" d="M306.6,5.2c11.9,2.4,23.6,5.6,35,9.9c-3.4,0.2-6.8,0.1-10.1-0.3c-10.3,12-17.4,26.6-29.6,37.2
		c-3.8,3.3-8,6.1-11.1,10.1c-3.3,4.4-9.8,5.3-12.1,10.7c-6.1,0.9-9.4,6.8-15,9c-12.2,5.6-23.9,12.1-36.7,16
		c-11.7,1.5-22.9,5.5-34.8,5.6c-15.8,4.4-31.9,0-47.7-1.5c-11.3-2.9-22.9-4.7-33.9-8.9c-10.3-5.6-21.9-8.9-31.1-16.4
		c0-1.3,0-2.6,0-3.8c6.3-6.1,12.8-12.1,19.7-17.5c5.1,0.5,10-4.9,14.8-1.3c11,5.2,22,12.1,34.5,12.3c11.4,3.4,23.4,2.1,35.2,2.7
		c9.2-1.8,18.7-1.3,27.7-3.8c7-2.9,13.8-6.5,21.2-8.4c12.2-6,24.9-11.8,34.2-22.1c9.9-7.7,18.8-16.9,25.6-27.4
		C296.5,4.9,302.2,7.8,306.6,5.2z"/>
</g>
<g>
	<path class="st0" d="M331.5,14.9c3.4,0.5,6.8,0.6,10.1,0.3c12.7,4.4,24.9,10.2,36.7,16.7c-1.9,1.2-4,2.2-5.4,4
		c-11.7,22.9-29.9,41.5-47.5,59.9c0.9,0.8,1.8,1.6,2.7,2.4c-31.3-2.8-62.5,11.2-83.2,34.5c-4.6-0.3-6.2,4.7-9.1,7.3
		c-3.6,4-9.5,2.1-14.1,3.8c-19.5,6.1-40.1,5.5-60.3,5.5c-9.8-2-19.7-2.5-29.5-4.2c-10-3.8-21.2-3.5-30.9-8
		c-17.4-6.5-33.9-15.5-49.9-25c-2.2,2.6-4.7,5.2-7.8,6.6c10.1-16.7,22.5-32,36.2-45.8c0,1.3,0,2.5,0,3.8
		c9.2,7.4,20.9,10.7,31.1,16.4c10.9,4.2,22.6,6,33.9,8.9c15.8,1.5,31.9,6,47.7,1.5c11.9-0.1,23.1-4.1,34.8-5.6
		c12.8-4,24.6-10.5,36.7-16c5.6-2.1,8.8-8.1,15-9c2.4-5.3,8.8-6.2,12.1-10.7c3.1-4,7.3-6.8,11.1-10.1
		C314.1,41.5,321.2,26.9,331.5,14.9z"/>
</g>
<g>
	<path class="st0" d="M378.3,31.9c13.8,7.8,26.9,16.9,39,27.1c-5.6,4.3-10.7,9.6-13.1,16.4c-6.3,9.2-12.5,18.5-20.6,26.3
		c-6.7,9.1-14,17.8-22,25.8c-0.3-0.4-0.8-1.3-1.1-1.8c-3.2,5.5-9.6,7.9-13.4,12.9c-4.6,6.6-13.5,7.8-18.8,13.8
		c-2.3,2.5-5.1,6.1-8.9,4.3c-2.6-2.9-4.3-6.5-6.4-9.7c-0.1,0.6-0.2,1.7-0.3,2.3c-6.3-18.1,1.6-38.8,16.6-50.2
		c-0.3-0.2-0.9-0.7-1.2-0.9c-0.9-0.8-1.8-1.6-2.7-2.4c17.6-18.3,35.9-36.9,47.5-59.9C374.4,34.1,376.5,33.1,378.3,31.9z"/>
</g>
<g>
	<path class="st0" d="M417.4,59c12.1,10.1,23.1,21.5,33,33.7c-9.4,0.5-11.6,11-17,16.8c-6.4,6.5-9.1,15.9-16.5,21.5
		c-3.5,2.5-5.1,6.7-7.9,9.8c-5.4,3.6-8.9,9.3-13.9,13.3c-10.8,12-23.8,21.8-37.3,30.6c-4.6,3.2-8.5,7.4-13.7,9.7
		c-3.9-3.5-7.1-7.8-11.7-10.4c-8-10.7-15.5-22-19.7-34.7c0.1-0.6,0.2-1.7,0.3-2.3c2.2,3.2,3.8,6.8,6.4,9.7c3.8,1.8,6.6-1.9,8.9-4.3
		c5.2-6,14.1-7.2,18.8-13.8c3.8-5,10.1-7.4,13.4-12.9c0.3,0.4,0.8,1.3,1.1,1.8c8-8,15.4-16.7,22-25.8c8-7.8,14.3-17.1,20.6-26.3
		C406.6,68.5,411.7,63.3,417.4,59z"/>
</g>
<g>
	<path class="st0" d="M433.4,109.5c5.4-5.8,7.6-16.4,17-16.8c11.3,14,21.1,29.1,29.1,45.1c-1.9-1.8-4-3.4-6.1-5
		c-12.8,14.5-22.7,31.3-36.7,44.7c-0.3-0.5-1-1.6-1.4-2.1c-0.7,2.1-1.3,4.4-2.9,6c-12.6,13.8-28,24.7-42.4,36.6
		c-6.6,5.3-14.4,8.8-19.9,15.3c-3.6-4.7-6.3-10.4-11.7-13.3c-7.9-12.5-17.4-23.9-26-36c4.6,2.6,7.8,6.9,11.7,10.4
		c5.2-2.3,9.1-6.5,13.7-9.7c13.5-8.8,26.5-18.6,37.3-30.6c5-4.1,8.4-9.7,13.9-13.3c2.8-3.1,4.4-7.3,7.9-9.8
		C424.3,125.3,427,116,433.4,109.5z"/>
</g>
<g>
	<path class="st0" d="M43.3,118.6c3.2-1.5,5.6-4,7.8-6.6c16,9.5,32.5,18.5,49.9,25c9.8,4.5,20.9,4.2,30.9,8
		c9.8,1.7,19.8,2.2,29.5,4.2c20.2,0,40.8,0.6,60.3-5.5c4.6-1.6,10.5,0.2,14.1-3.8c2.9-2.6,4.5-7.6,9.1-7.3
		c-11.4,13.3-19.1,29.5-22.7,46.6c-0.2-0.9-0.5-2.6-0.7-3.5c-1.5,3.8-2.8,7.6-3.9,11.6c-16,4.4-32.6,3.7-49,3.9
		c-20.8-1.2-42.1-2.9-61.8-9.9c-18.7-3.8-36.4-11.4-53.5-19.6c-6.8-4.8-15.3-7.3-20.8-13.9c-2.8,2.6-5.1,5.7-8.1,8
		C29.5,142.8,35.9,130.4,43.3,118.6z"/>
</g>
<g>
	<path class="st0" d="M436.7,177.5c14-13.4,23.9-30.3,36.7-44.7c2.1,1.6,4.2,3.2,6.1,5c6.6,13.1,12.1,26.8,16.2,40.9
		c-1.9-1.5-3.6-3.1-5.3-4.8c-9,6.2-11.5,18-21.1,23.3c-16.1,16.5-32.2,33.2-50.9,47c-11.5,6.6-20.9,16.4-32.9,22.2
		c-6.4,2.8-5.3-7.5-10.2-9.2c-4-13.1-9.9-25.5-16.9-37.2c5.4,2.9,8.1,8.6,11.7,13.3c5.5-6.6,13.4-10.1,19.9-15.3
		c14.4-11.9,29.8-22.7,42.4-36.6c1.6-1.6,2.2-3.9,2.9-6C435.7,175.9,436.4,177,436.7,177.5z"/>
</g>
<g>
	<path class="st0" d="M24.4,155.8c3-2.3,5.3-5.4,8.1-8c5.5,6.6,14,9.1,20.8,13.9c17.1,8.3,34.9,15.8,53.5,19.6
		c19.7,7.1,41,8.7,61.8,9.9c16.4-0.2,33,0.5,49-3.9c1.1-3.9,2.4-7.8,3.9-11.6c0.2,0.9,0.5,2.6,0.7,3.5c-2.6,13.3-2.5,26.9-0.3,40.2
		c-0.5,4.1-1.1,8.3-1.3,12.5c-22.2,4.9-45,3.5-67.5,3.4c-12.6-3.8-26.3-0.6-38.4-6.1c-13.6-2.3-27.3-5.4-40-10.9
		c-15.6-4.6-31.1-10.3-44.5-19.6c-4.8-2.4-10.3-3.3-14.3-7c-1.2,2.8-2.4,5.7-3.8,8.4c-0.1-0.9-0.4-2.6-0.6-3.4
		C14.7,182.7,18.8,168.9,24.4,155.8z"/>
</g>
<g>
	<path class="st0" d="M469.2,197.3c9.6-5.3,12.1-17.1,21.1-23.3c1.7,1.6,3.4,3.3,5.3,4.8c4.3,14,7.2,28.5,8.7,43.1
		c-0.3,1.5-0.6,2.9-0.9,4.4c-1.1-1.9-2.2-3.9-3.2-5.8c-3.9,3.4-7.8,7-10.4,11.5c-4.3,7.1-12.4,10.3-17.6,16.4
		c-4.9,5.1-11,8.9-15.6,14.2c-4.8,5.9-12.5,8.1-17.8,13.3c-3.2,3.3-7.1,5.8-11.1,8c-4,2-5.7,6.9-10.1,8.2c-4.4,1.5-7.3,5.4-11.6,7
		c-7.9,2.7-13.3,9.6-21.1,12.8c-1.7-0.8-3.5-1.6-5.2-2.4c2.3-17.5,0.2-35.4-4.6-52.3c4.9,1.7,3.8,12,10.2,9.2
		c12-5.8,21.4-15.6,32.9-22.2C437,230.5,453.1,213.8,469.2,197.3z"/>
</g>
<g>
	<path class="st0" d="M16,191.7c4.1,3.7,9.5,4.6,14.3,7c13.4,9.3,28.9,15,44.5,19.6c12.7,5.5,26.4,8.7,40,10.9
		c12.2,5.5,25.9,2.2,38.4,6.1c22.5,0.1,45.3,1.5,67.5-3.4c0.3-4.2,0.8-8.3,1.3-12.5c2.8,14.2,8.1,27.7,11.8,41.7
		c-2.2,5.1,0.5,10.5,0.2,15.8c-19.8,0.8-39.2,5-59.1,4.8c-6.1,1.1-12.2,0.1-18.1-1.5c-7.5,1.2-14.6-1.5-22.1-1.8
		c-10.6-0.5-21.1-2.7-31.4-4.9c-5,0-9.5-2.3-14.2-3.7c-8.3-2.9-17.4-2.2-25.1-6.8c-19.8-5.5-37.7-15.4-56.5-23.5
		c-0.4-2.8-0.7-5.6-1-8.4c1-11.6,2.5-23.1,5.1-34.5c0.1,0.9,0.4,2.6,0.6,3.4C13.6,197.4,14.8,194.5,16,191.7z"/>
</g>
<g>
	<path class="st0" d="M489.9,231.9c2.6-4.5,6.5-8.1,10.4-11.5c1.1,1.9,2.1,3.9,3.2,5.8c0.3-1.5,0.6-2.9,0.9-4.4
		c2.4,21.8,2.1,44-1.4,65.7c-0.6-4.2-1.5-8.4-2.3-12.6c-8.9,3.5-12.9,13.2-21.2,17.7c-20.3,17.3-43.2,31-65,46.2
		c-8.3,4.4-17.6,6.9-25.1,12.8c-9.5,5.3-19.5,10-29.8,13.5c2-5.9,8.4-10.1,7.6-16.8c6.5-11.9,10.9-25.1,12.6-38.6
		c1.7,0.8,3.5,1.6,5.2,2.4c7.8-3.1,13.1-10,21.1-12.8c4.3-1.6,7.3-5.5,11.6-7c4.3-1.4,6.1-6.2,10.1-8.2c4-2.2,7.9-4.7,11.1-8
		c5.3-5.3,13.1-7.4,17.8-13.3c4.7-5.3,10.7-9.1,15.6-14.2C477.6,242.2,485.6,239,489.9,231.9z"/>
</g>
<g>
	<path class="st0" d="M9,288.4c-3-18.9-3.6-38.1-2.4-57.2c0.2,2.8,0.6,5.6,1,8.4c18.8,8,36.8,18,56.5,23.5
		c7.7,4.6,16.9,3.9,25.1,6.8c4.7,1.5,9.2,3.8,14.2,3.7c10.3,2.2,20.8,4.4,31.4,4.9c7.4,0.3,14.6,3,22.1,1.8c5.9,1.6,12,2.6,18.1,1.5
		c19.8,0.2,39.3-4,59.1-4.8c0.3-5.3-2.5-10.7-0.2-15.8c4.3,14.5,6.6,30.1,3.5,45.1c-0.2-1.5-0.5-3-0.8-4.5
		c-1.7,4.1-2.2,9.1-5.4,12.4c-6.1,2.4-12.8,2-19.2,2.8c-31.7,4.6-63.9,0.9-95.6-2.3c-35.5-5.7-70.3-15.5-103-30.6
		C12,285.6,10.5,287,9,288.4z"/>
</g>
<g>
	<path class="st0" d="M479.5,292.5c8.3-4.5,12.3-14.1,21.2-17.7c0.8,4.2,1.7,8.4,2.3,12.6c-3,20.7-8.8,41-17.1,60.2
		c-0.1-2.9-0.3-5.9-0.4-8.8c-14.1,6.6-24.5,18.6-38.3,25.4c-6.6,5.2-14,8.9-21.5,12.5c-12.3,7.7-25.3,14.1-38.8,19.4
		c-10.8,5.5-22,10-33.2,14.5c-4.2,0.9-8.5,1.6-12.1,4c-4.7,3-10.6,1.4-15.6,3.5c-7.8,4.5-16.8,5.6-25.1,8.6c-14.5,0.6-27.8,8-42.3,8
		c-11.5,2.7-23.3,3.4-34.9,5.6c-38.3,1.1-76.8,2.4-115-2.2c-5.2-1.1-11.3-3.6-15.6,0.9c-17.9-15.3-33.6-33.2-46.5-52.9
		c8.6-5.2,17.2,2.2,25.7,3.5c9.7,1,19.2,3.2,29,3.8c4.6,2.5,9.6,2.9,14.7,2.6c12,2.3,24.2,3.7,36.4,2.7c7.2,0.6,14.3,1.6,21.5,0.2
		c-5.5-4.7-13.7-7.3-16.3-14.6c37.1,28.5,88.1,37.4,132.6,23.1c31.4-9.9,60.2-30.4,77.1-59.1c0.8,6.7-5.6,10.9-7.6,16.8
		c10.3-3.5,20.3-8.2,29.8-13.5c7.5-5.9,16.8-8.4,25.1-12.8C436.4,323.5,459.3,309.8,479.5,292.5z"/>
</g>
<g>
	<path class="st0" d="M9,288.4c1.4-1.4,2.9-2.9,4.4-4.3c32.7,15.1,67.6,24.9,103,30.6c31.7,3.1,63.8,6.9,95.6,2.3
		c6.4-0.8,13.1-0.4,19.2-2.8c3.2-3.3,3.7-8.3,5.4-12.4c0.3,1.5,0.5,3,0.8,4.5c-3.2,16.2-12.5,31.2-25.4,41.5
		c-5.9,0.1-10.3,4.7-15.6,6.6c-7,3.4-14.8,1.3-22.2,2.2c-7.1,1-14.1-0.5-21.2-0.1c-6.2,0.3-12.1-2-18-3.6c-3.5-1.1-6.8,1.2-10.3,0.6
		c-6.5-1.2-13.2-0.8-19.6-2.9c-8-2.4-16.5-1.9-24.5-4.4c-11.3-3.8-23.5-4.6-34.4-9.6c-7.9-2.7-15.7-5.5-23.8-7.3
		c0.4,2.1,0.8,4.2,1.3,6.3c-0.4,0.5-1.3,1.5-1.7,1.9C16,321.7,11.7,305.2,9,288.4z"/>
</g>
<g>
	<path class="st0" d="M22.4,329.4c8.1,1.9,15.9,4.7,23.8,7.3c11,4.9,23.1,5.8,34.4,9.6c7.9,2.5,16.5,2,24.5,4.4
		c6.3,2,13.1,1.7,19.6,2.9c3.5,0.6,6.9-1.7,10.3-0.6c5.9,1.6,11.8,3.9,18,3.6c7.1-0.4,14.1,1.1,21.2,0.1c7.4-0.9,15.2,1.2,22.2-2.2
		c5.3-1.9,9.7-6.5,15.6-6.6c-18.5,15.6-45.1,19.7-67.8,12.1c-4.9-1.6-9.3-4.7-14.5-5.5c6.7,12,17.6,21,28,29.7
		c2.6,7.3,10.8,9.9,16.3,14.6c-7.2,1.4-14.3,0.4-21.5-0.2c-12.2,1-24.4-0.4-36.4-2.7c-5.1,0.3-10.1-0.1-14.7-2.6
		c-9.7-0.6-19.3-2.8-29-3.8c-8.5-1.3-17.2-8.7-25.7-3.5c-9.9-15.2-18.2-31.4-24.6-48.4c0.4-0.5,1.3-1.4,1.7-1.9
		C23.2,333.6,22.8,331.5,22.4,329.4z"/>
</g>
<g>
	<path class="st0" d="M447.2,364.2c13.8-6.9,24.3-18.9,38.3-25.4c0.1,2.9,0.3,5.9,0.4,8.8c-15.2,36.1-39.4,68.2-69.4,93.4
		c-0.2,5.8-0.4,11.6-0.4,17.4c-1.3-6.4-2.6-13-1.9-19.5c-9,2.9-16.5,9.3-25.8,11.2c-7,1.8-13.3,5.5-19.6,8.9
		c-0.7-0.3-1.4-0.5-2.1-0.8c-4,3.1-8.9,4.1-13.8,5.1c-5.8,1.9-11.4,4.3-17.4,5.1c-0.4,0.4-0.7,0.9-1,1.3c-6,1.6-12.1,2.6-18.2,3.6
		c-14.7,6-30.5,8.7-46.2,10.9c-7.6,2.7-15.9,1-23.5,3.7c-5.3,1.9-11-0.4-16.3,1.5c-7.4,2.1-17.3-2.3-22.5,5.1
		c-42.1-8.1-82-27.6-114.5-55.5c4.3-4.5,10.4-2,15.6-0.9c38.2,4.6,76.6,3.3,115,2.2c11.6-2.2,23.4-2.9,34.9-5.6
		c14.5,0,27.8-7.3,42.3-8c8.3-3,17.3-4.1,25.1-8.6c5-2.1,10.9-0.6,15.6-3.5c3.7-2.4,8-3.1,12.1-4c11.2-4.5,22.4-9,33.2-14.5
		c13.5-5.2,26.5-11.7,38.8-19.4C433.2,373.2,440.6,369.4,447.2,364.2z"/>
</g>
<g>
	<path class="st0" d="M388.4,450c9.3-1.9,16.8-8.2,25.8-11.2c-0.6,6.6,0.6,13.1,1.9,19.5c0.4,16.6,0.2,33.2,0.1,49.8
		c-0.6,1.4-1.5,2.6-2.3,3.9h-4c-19.7-10.3-39-21.3-58.6-31.6c-45.1,18.7-95.7,23.6-143.6,14.1c5.3-7.4,15.2-3,22.5-5.1
		c5.3-1.9,11,0.4,16.3-1.5c7.6-2.7,15.9-1,23.5-3.7c15.7-2.2,31.5-4.9,46.2-10.9c6.1-0.9,12.2-2,18.2-3.6c0.3-0.4,0.7-0.9,1-1.3
		c6-0.9,11.7-3.3,17.4-5.1c4.8-1,9.8-2,13.8-5.1c0.7,0.3,1.4,0.5,2.1,0.8C375.1,455.5,381.4,451.8,388.4,450z"/>
</g>
<g>
	<path class="st0" d="M416.1,458.3c0-5.8,0.2-11.6,0.4-17.4c0.1,22.4,0.7,44.8-0.4,67.1C416.3,491.5,416.5,474.9,416.1,458.3z"/>
</g>
</svg>
